<svg xmlns="http://www.w3.org/2000/svg" width="363" height="129" viewBox="0 0 363 129" fill="none"><path d="M133.125 33.4035C134.116 33.3928 135.082 33.089 135.902 32.5305C136.721 31.9719 137.357 31.1835 137.729 30.2645C138.101 29.3455 138.193 28.3368 137.994 27.3656C137.794 26.3943 137.312 25.5037 136.607 24.806C135.903 24.1083 135.007 23.6345 134.034 23.4443C133.061 23.2541 132.053 23.356 131.138 23.7371C130.223 24.1183 129.44 24.7617 128.89 25.5863C128.339 26.411 128.045 27.3801 128.044 28.3717C128.054 29.7116 128.594 30.993 129.546 31.9359C130.498 32.8788 131.785 33.4065 133.125 33.4035Z" fill="black"></path><path d="M181.909 10.0393C182.582 10.0614 183.253 9.94803 183.881 9.70582C184.509 9.4636 185.082 9.09751 185.566 8.62933C186.05 8.16115 186.435 7.60045 186.697 6.98056C186.96 6.36068 187.096 5.69428 187.096 5.021C187.096 4.34772 186.96 3.68132 186.697 3.06144C186.435 2.44155 186.05 1.88085 185.566 1.41267C185.082 0.944488 184.509 0.578402 183.881 0.336183C183.253 0.0939647 182.582 -0.0194381 181.909 0.0027201C181.244 -0.00301948 180.583 0.122443 179.966 0.371943C179.349 0.621444 178.786 0.990096 178.312 1.45685C177.837 1.9236 177.458 2.47931 177.198 3.09225C176.938 3.70519 176.802 4.36336 176.796 5.02916C176.801 5.69303 176.937 6.34939 177.196 6.96068C177.455 7.57196 177.832 8.12616 178.305 8.59154C178.779 9.05692 179.339 9.42434 179.955 9.67276C180.571 9.92119 181.229 10.0457 181.893 10.0393" fill="black"></path><path d="M90.3727 92.6001H96.2695H97.3194C99.8598 92.6437 100.143 93.2584 102.846 96.5821C108.993 104.04 117.594 115.018 130.22 121.192C140.599 126.262 149.988 128.367 159.258 128.574L160.694 128.607H162.201C171.492 128.607 184.646 127.519 195.509 123.025C208.652 117.629 217.894 107.424 217.894 90.0488C217.894 68.409 201.085 54.6516 180.326 54.6516C159.568 54.6516 142.791 68.409 142.791 90.0488C142.791 111.161 157.267 123.401 175.942 125.201C134.523 126.034 113.639 91.5176 112.535 90.0488C131.487 85.6969 130.753 72.8425 130.753 72.8425C130.753 56.6589 110.054 55.6906 102.83 55.6417H78.0405V124.837H90.3727V92.6001ZM155.934 90.0271C155.934 71.9069 166.857 59.1286 180.326 59.1286C193.795 59.1286 204.724 71.9069 204.724 90.0271C204.724 110.155 193.844 120.92 180.326 120.92C166.808 120.92 155.934 110.182 155.934 90.0271ZM90.3727 59.5638L98.3258 59.6563C107.443 59.6563 116.99 61.8322 116.99 72.7609C116.99 84.5491 107.057 87.3724 98.4944 87.3724H90.3727V59.5638Z" fill="black"></path><path d="M151.631 53.6072C151.631 53.6072 163.278 45.3984 181.73 45.3821C200.182 45.3658 211.85 53.6072 211.85 53.6072L225.7 34.8832C221.649 36.1655 217.437 36.8669 213.189 36.9666H211.791C188.943 36.3519 181.735 13.635 181.714 13.5752C181.686 13.6459 174.185 37.206 150.239 36.9666C145.992 36.8691 141.78 36.175 137.727 34.9049L151.631 53.6072Z" fill="black"></path><path d="M230.504 32.7997C231.494 32.7868 232.457 32.4813 233.274 31.9217C234.09 31.3621 234.723 30.5734 235.092 29.6549C235.461 28.7364 235.55 27.7292 235.348 26.7602C235.146 25.7912 234.662 24.9037 233.956 24.2094C233.251 23.5152 232.355 23.0452 231.383 22.8588C230.411 22.6723 229.405 22.7777 228.493 23.1617C227.581 23.5456 226.802 24.191 226.256 25.0164C225.71 25.8419 225.42 26.8106 225.423 27.8004C225.434 29.1369 225.976 30.4142 226.929 31.3516C227.881 32.289 229.167 32.8098 230.504 32.7997Z" fill="black"></path><path d="M272.266 124.782H277.618L300.411 55.4894H294.058L278.282 101.973L263.72 55.4894L258.644 55.5383L243.837 101.962L229.465 55.4894H224.172C220.712 55.4894 217.486 58.1767 219.194 63.6492L237.973 124.804H243.075L257.991 78.0213L272.266 124.782Z" fill="black"></path><path d="M310.932 68.5287L362.225 127.519L362.203 55.4622H356.099L356.148 101.152L316.497 55.4622H304.856V124.782H310.894L310.932 68.5287Z" fill="black"></path><path d="M69.478 104.851C66.3555 110.867 62.4878 114.463 57.7932 117.139C50.8356 121.067 46.315 121.045 40.3094 121.045C27.0089 121.045 13.3222 110.856 13.3222 90.7669C13.3222 72.032 25.3715 59.4714 40.3094 59.4714C51.7712 59.4714 60.0289 63.4316 67.6556 76.4166L66.8233 59.8032C56.7215 55.8158 49.443 54.5048 39.8688 54.5048C19.2789 54.5048 0 69.8996 0 90.7343C0 112.652 19.0395 125.963 39.6077 125.963C50.9172 125.963 58.4079 124.712 67.2096 120.284L69.478 104.851Z" fill="black"></path></svg>