<svg xmlns="http://www.w3.org/2000/svg" viewBox="0 0 385.2 85.04"><path d="M84.55 74.34a4.47 4.47 0 001.45.26 3.22 3.22 0 003.39-3.38c0-2.07-1.53-3.46-3.81-3.46-1.11 0-1.36.3-1.36 1.63v4.85zm-.31 2.41c0 1.36.06 1.68.31 1.94a1.17 1.17 0 00.78.26h1.45c.35 0 .48.09.48.32v.15l-.09.11-.18.06h-5.48l-.17-.06-.14-.26a.32.32 0 01.33-.32l.39-.06a.69.69 0 00.42-.2c.25-.28.29-.58.29-1.94V70a9.28 9.28 0 00-.07-1.5.8.8 0 00-.64-.65l-.39-.06a.32.32 0 01-.33-.31v-.15l.1-.1h.17a1.34 1.34 0 01.33 0h3.7a6.12 6.12 0 014.32 1.31 4.38 4.38 0 011.41 3c0 2.24-2 3.83-4.82 3.83A7.16 7.16 0 0184.2 75zm22.22-.66l-.06-.17-.83-1.9-1.1-2.17-.08-.13-.06.12a29.89 29.89 0 00-1.82 4.16v.13zm-4.74 2.55c0 .29.13.41.46.42h.39c.21 0 .33.1.33.25s-.1.26-.37.26h-2.4c-.25 0-.35-.06-.35-.25s.1-.24.31-.26a.8.8 0 00.45-.13 2 2 0 00.57-1c.63-1.72 1-2.8 1.25-3.27l1.55-3.38v-.15a1.62 1.62 0 00-1.12-.41h-.54c-.31 0-.43-.1-.43-.26s.08-.26.41-.26h3.14c.48 0 .54 0 .54.32v.16a1.55 1.55 0 00.23.77c.83 1.75 1.32 2.8 1.46 3.17l1.27 3.38c0 .08.12.23.22.46l.15.24a.75.75 0 00.62.35c.27 0 .33.09.33.24s-.08.25-.35.25h-3.24c-.31 0-.41-.06-.41-.25s.1-.24.31-.26.23 0 .28 0c.34 0 .46-.13.46-.45a8.11 8.11 0 00-.56-1.88v-.11h-4.38a7 7 0 00-.54 2m18.61-1.15v-5c0-1.25-.09-1.55-.54-1.61h-.31c-.16 0-.25-.11-.25-.26s.09-.24.44-.24h3c.35 0 .45 0 .45.24a.26.26 0 01-.26.26h-.3c-.45.06-.55.36-.55 1.61v5c0 1.25.1 1.55.55 1.61h.3c.16 0 .26.12.26.26s-.1.25-.45.25h-3c-.35 0-.44-.06-.44-.25s.08-.22.25-.26h.31c.45-.06.54-.36.54-1.61m14.26.1c0 1.17.1 1.49.49 1.52h.35a.25.25 0 01.25.24c0 .19-.1.25-.43.25h-2.11c-.21 0-.31-.08-.31-.23s.08-.24.26-.26h.34c.39 0 .51-.37.51-1.51v-6.11a1.81 1.81 0 00-1.44-.69c-.19 0-.29-.11-.29-.26a.27.27 0 01.27-.24h2.91c.33 0 .42.07.42.26l-.11.21h-.08l-.08.09.14.14 2.5 2.84a21.24 21.24 0 012.42 3.26v-4.82c0-1.25-.12-1.46-.82-1.5-.21 0-.31-.09-.31-.24s.1-.24.35-.24H142c.27 0 .36.06.36.22s-.09.23-.29.26h-.29l-.26.15c-.2.19-.26.47-.26 1.31v7.06c0 .41-.06.47-.52.47s-.43-.06-.6-.38a29.1 29.1 0 00-2.29-3.55 18.37 18.37 0 00-3.2-3.79zm23.58-7.29c.06-.3.12-.38.29-.38a.43.43 0 01.33.19 4.09 4.09 0 01.76 2.32c0 .2-.1.33-.25.33s-.18 0-.27-.26a4.16 4.16 0 00-.78-1.16 2 2 0 00-1.32-.53h-.29c-.23.11-.27.3-.27 1.29v5.38c0 1.16.13 1.55.56 1.58h.54a.25.25 0 01.28.24v.12l-.08.07-.12.06h-4l-.11-.06-.1-.19a.25.25 0 01.27-.24h.54c.43 0 .56-.41.56-1.58V72.1a5.07 5.07 0 00-.07-1.1.48.48 0 00-.45-.24 2 2 0 00-1.36.53 2.58 2.58 0 00-.44.58l-.31.58c-.12.23-.18.26-.27.26s-.27-.13-.27-.35a4.28 4.28 0 01.67-2.21.55.55 0 01.41-.28c.17 0 .23.08.29.38zm30.48-1.1a1.49 1.49 0 00-1.69-1.57 1.72 1.72 0 00-1.86 1.83 2.85 2.85 0 000 .41 4.81 4.81 0 00.83 1.94l.14.24a3.47 3.47 0 002.5-2.85m-5 6.46a3.51 3.51 0 003.56 3.51 3.21 3.21 0 001.67-.43l-.14-.11a17.89 17.89 0 01-1.91-2.35 29.64 29.64 0 01-2-2.94 2.56 2.56 0 00-1.2 2.32m3.18-2.61a35.43 35.43 0 003.39 4.6 3.93 3.93 0 00.72-2.19 1.79 1.79 0 00-.45-1.31c-.27-.28-.66-.37-1.53-.37h-.11a.31.31 0 01-.35-.32c0-.2.13-.29.4-.29h4.52c.33 0 .48.09.48.31s-.11.28-.33.3l-.79.09c-.56.06-.8.36-.93 1.16a6 6 0 01-1.13 3.02 2.67 2.67 0 00.92.69 4.92 4.92 0 001.7.28c.33 0 .46.13.46.32s-.09.26-.48.26h-3.12a1.91 1.91 0 01-.5-.28l-.18-.13a4.81 4.81 0 01-2.75.78c-2.61 0-4.61-1.66-4.61-3.83a3.49 3.49 0 01.7-2.07 4.08 4.08 0 011.74-1.38 5.54 5.54 0 01-1-2.82 3.32 3.32 0 013.57-3c1.72 0 2.9 1 2.9 2.49a2.63 2.63 0 01-1.43 2.29 7.46 7.46 0 01-2.11 1zm33.09 1.34a4.48 4.48 0 001.48.26 3.22 3.22 0 003.38-3.38c0-2.07-1.53-3.46-3.81-3.46-1.11 0-1.36.3-1.36 1.63v4.85zm-.31 2.41c0 1.36.06 1.68.31 1.94a1.17 1.17 0 00.78.26h1.45c.35 0 .48.09.48.32v.15l-.1.11-.18.06h-5.44l-.17-.06-.14-.26a.32.32 0 01.33-.32l.39-.06a.74.74 0 00.43-.2c.24-.28.28-.58.28-1.94V70a9.28 9.28 0 00-.07-1.5.8.8 0 00-.64-.65l-.39-.06a.32.32 0 01-.33-.31v-.15l.1-.1h.17a1.38 1.38 0 01.33 0h3.7a6.12 6.12 0 014.32 1.31 4.39 4.39 0 011.42 3c0 2.24-2 3.83-4.83 3.83a7.16 7.16 0 01-2.21-.37zm22.23-.66l-.06-.17-.84-1.9-1.1-2.17-.08-.13-.06.12a29.89 29.89 0 00-1.82 4.16v.13zM237 78.64c0 .29.13.41.46.42h.39c.21 0 .33.1.33.25s-.1.26-.37.26h-2.4c-.25 0-.35-.06-.35-.25s.1-.24.31-.26a.8.8 0 00.45-.13 2.08 2.08 0 00.58-1c.62-1.72 1-2.8 1.24-3.27l1.55-3.38.05-.15a1.59 1.59 0 00-1.12-.41h-.54c-.31 0-.43-.1-.43-.26s.08-.26.41-.26h3.14c.48 0 .54 0 .54.32v.16a1.66 1.66 0 00.23.77c.84 1.75 1.32 2.8 1.46 3.17l1.28 3.38c0 .08.11.23.21.46l.15.24a.75.75 0 00.62.35c.27 0 .33.09.33.24s-.07.25-.35.25h-3.29c-.31 0-.41-.06-.41-.25s.1-.24.31-.26a2.22 2.22 0 00.27 0c.35 0 .47-.13.47-.45a8.11 8.11 0 00-.56-1.88v-.11h-4.38a7 7 0 00-.54 2m21.63-2.79a2.19 2.19 0 002.17-2.47 2.29 2.29 0 00-2.31-2.58c-.73 0-.93.25-.93 1.22v3.6a2.91 2.91 0 001.07.23m-1.07 1.79c0 .89 0 1.14.22 1.3s.35.19.62.19h1.08c.3 0 .39.07.39.27s-.09.24-.43.24H255c-.31 0-.41-.06-.41-.24a.29.29 0 01.26-.29h.32c.45-.08.55-.36.55-1.59v-5c0-1.24-.1-1.52-.55-1.59l-.32-.06a.26.26 0 01-.26-.26c0-.19.1-.24.41-.24h3.79a4.26 4.26 0 013.17 1 3.2 3.2 0 01.94 2.22c0 1.74-1.51 3-3.64 3a5 5 0 01-1.65-.26zm15.4 2c-.27 0-.37-.06-.37-.25s.1-.22.27-.26h.31c.45-.06.52-.34.52-1.61v-5c0-1.25-.1-1.55-.52-1.61h-.31c-.17 0-.27-.11-.27-.26s.12-.24.45-.24h6.24c0-.17.09-.3.25-.3l.34.19a4.37 4.37 0 011.32 2.15.23.23 0 01-.23.24c-.08 0-.18-.06-.31-.21l-.64-.61a4.68 4.68 0 00-3.35-1c-1.17 0-1.28.11-1.28 1.21v2.35h1.66a2.45 2.45 0 001.38-.24c.29-.2.37-.38.45-1.12 0-.22.09-.32.27-.32s.25.1.25.38v3.49c0 .24-.08.35-.25.35s-.25-.09-.27-.35a2.06 2.06 0 00-.45-1.38c-.21-.21-.5-.27-1.36-.27h-1.68v3c0 .74.06 1 .23 1.11a5 5 0 001.76.13 4.83 4.83 0 003-.61 3.65 3.65 0 00.7-.58c.09-.07.2-.19.37-.36s.21-.19.31-.19a.24.24 0 01.23.25 3.75 3.75 0 01-.67 1.4c-.51.81-.82 1.12-1.07 1.12s-.28-.19-.28-.55zm21-3.98a3.14 3.14 0 001 .2 2.31 2.31 0 002.31-2.46 2.34 2.34 0 00-2.38-2.62c-.85 0-1.09.28-1.09 1.31v3.53zm-.14 2c0 .86 0 1.12.18 1.3a.66.66 0 00.45.23h1.14a.25.25 0 01.27.24c0 .17-.1.25-.35.25h-4c-.35 0-.45-.06-.45-.25s.08-.22.25-.26h.31c.45-.05.55-.35.55-1.6v-5c0-1.26-.1-1.55-.55-1.61h-.31c-.17 0-.25-.11-.25-.26s.1-.24.45-.24h3.58c2.38 0 4 1.25 4 3.17a3 3 0 01-2.46 2.86 2.06 2.06 0 01.7 1c.19.41.39.75.54 1a1.63 1.63 0 001.3.86h.35l.21.21c0 .22-.34.35-1.06.35a2.69 2.69 0 01-1.94-.65 8 8 0 01-1.41-2.13 1 1 0 00-.84-.6 2.91 2.91 0 01-.66-.19zm-279.34-5h53.9v1.09h-53.9zm296.74 0h53.9v1.09h-53.9zM370 21.18a3.1 3.1 0 00-1.09.74 3.47 3.47 0 00-.78 1.13 3.39 3.39 0 00-.26 1.33 3.31 3.31 0 00.26 1.32 3.41 3.41 0 00.75 1.11 3.38 3.38 0 002.44 1 3.48 3.48 0 001.31-.26 3.69 3.69 0 001.15-.77 3.17 3.17 0 00.75-1.1 3.42 3.42 0 00.25-1.33 3.5 3.5 0 00-.25-1.33 3.32 3.32 0 00-.74-1.11 3.43 3.43 0 00-2.47-1 3.41 3.41 0 00-1.32.26m4.14 4.38a2.85 2.85 0 01-.66 1 2.89 2.89 0 01-1 .67 3.09 3.09 0 01-1.17.23 3 3 0 01-1.16-.23 3.23 3.23 0 01-1-.67 3.12 3.12 0 01-.66-1 3 3 0 01-.23-1.14 3.09 3.09 0 01.23-1.17 3.27 3.27 0 01.68-1 2.94 2.94 0 011-.64 3 3 0 011.16-.22 3.11 3.11 0 011.19.22 3.15 3.15 0 011 .67 2.8 2.8 0 01.65 1 3.19 3.19 0 01.23 1.19 3 3 0 01-.23 1.15M370 22.35v3.95h.66v-1.72h.85l.83 1.72h.66l-.89-1.81a1.13 1.13 0 00.68-.36 1 1 0 00.25-.69.92.92 0 00-.41-.82 2.3 2.3 0 00-1.25-.27zm2.17.6a.68.68 0 010 1.05 1.7 1.7 0 01-.83.15h-.7v-1.37h.68a1.56 1.56 0 01.83.17M20.63 18.43c0-2 0-6.74-.64-8.46-.82-2.16-3.43-2.16-5.46-2.16V6.34c3 .07 6 .2 9.09.26 3.24-.06 6.42-.19 9.66-.26v1.47c-2 0-4.64 0-5.46 2.16-.64 1.72-.64 6.42-.64 8.46v18.82c0 8.13 1.27 9.47 9.35 9.47 3 0 6.42.13 9-1.59 3.18-2 3.57-4.39 4.14-8h1.59l-.57 11.26c-1.09-.07-2.23-.13-3.31-.26-10.93.19-21.94.19-32.87.26V47c2 0 4.64 0 5.46-2.16.64-1.71.64-6.42.64-8.45zM57.06 9a3.41 3.41 0 013.43-3.43A3.36 3.36 0 0163.86 9a3.32 3.32 0 01-3.24 3.36A3.43 3.43 0 0157.06 9m6.87 11.31v20.43c.12 4.2-.58 6.11 4.45 6.42v1.28c-2.16-.07-4.52-.2-6.81-.26-2.48.06-5 .19-7.43.26v-1.28c4.7-.31 4.32-1.84 4.38-6V32a64.13 64.13 0 00-.25-7c-.45-1.6-3.12-1.46-4.39-1.41V22.3zm6.54 2.82V22c3.18-1.85 6.36-4.39 7.69-8h1v7.44h7.25v1.72h-7.29v18.09c0 2.86.57 5.85 3.94 5.85 2.23 0 3.37-1.27 4.58-2.86l1.14.83c-1.14 3-4.32 4.07-7.37 4.07-4.58 0-7.7-1.78-7.7-6.55V23.13zm20.35 0V22c3.17-1.85 6.35-4.39 7.69-8h.95v7.44h7.25v1.72h-7.25v18.09c0 2.86.58 5.85 4 5.85 2.22 0 3.36-1.27 4.57-2.86l1.15.83c-1.15 3-4.33 4.07-7.38 4.07-4.58 0-7.69-1.78-7.69-6.55V23.13zm29.11 17.61c.13 4.2-.57 6.11 4.45 6.43v1.27c-2.47-.07-4.89-.2-7.31-.26s-4.64.19-7 .26v-1.27c4.77-.32 4.44-1.85 4.44-6.05V16.71c0-1.59 0-5.47-.63-6.8-.76-1.59-2.67-1.47-4.13-1.65V7l10.17-2zm23.65-11.19c1 0 3.12.32 3.12-1.27 0-3.94-2.16-6.48-6.17-6.48-4.77 0-6.68 3.62-7.44 7.75zm8.27 14.18a13.58 13.58 0 01-11.32 5.41c-7.88 0-14.37-5.54-14.37-13.67 0-7.95 6-15.14 14.31-15.14 6.23 0 12.14 3.5 12.14 10.37 0 .82-1 .57-1.59.57h-18.24l-.26 3.05c0 6 3.18 12.78 10 12.78 3.24 0 6.1-2.16 8-4.71zm59.88-24.41h-1.33C210 12.2 205.31 7 197.94 7c-12.4 0-15.07 11.45-15.07 21.5 0 9.53 3.69 18.88 14.5 18.88 6.36 0 10.61-3 10.61-9.54 0-4.26-1.58-5.08-5.46-5.4V31h16.65v1.46c-3.43-.06-3.94 1.65-3.94 4.83v6.74c-4.64 0-5 .51-9 2.67a21.09 21.09 0 01-10 2.42c-12.39 0-21.36-8.14-21.36-20.73 0-13 9-22.82 22.26-22.82a21.79 21.79 0 0113.22 4l1.33-2.86h.71zm13.92 13.98c0-1.71.07-6.23-.38-7.69-.57-2.28-2.16-2-4.2-2V22.3c3-.18 5.79-1.33 8.59-2a20.69 20.69 0 01.77 6.42h.12c1.65-3.87 4.83-6.42 9.22-6.42 2 0 4.51 1 4.51 3.31a2.3 2.3 0 01-2.22 2.29c-2.67 0-2.1-3.31-4.58-3.31a6.58 6.58 0 00-5 3.18c-1.46 2.61-1.46 5.72-1.46 8.65v6.29c0 4.64-.51 6.17 4.83 6.43v1.27c-2.42-.07-4.89-.2-7.31-.26s-4.9.19-7.38.26v-1.24c4.77-.32 4.45-1.85 4.45-6.05zm36.56-3.75c1 0 3.12.32 3.12-1.27 0-3.94-2.17-6.48-6.17-6.48-4.77 0-6.68 3.62-7.44 7.75zm8.27 14.18a13.58 13.58 0 01-11.32 5.41c-7.88 0-14.37-5.54-14.37-13.67 0-7.95 6-15.14 14.3-15.14 6.24 0 12.15 3.5 12.15 10.37 0 .82-.95.57-1.59.57H251.4l-.25 3.05c0 6 3.17 12.78 10 12.78 3.24 0 6.1-2.16 8-4.71zm21.92-14.18c1 0 3.12.32 3.12-1.27 0-3.94-2.16-6.48-6.17-6.48-4.77 0-6.67 3.62-7.43 7.75zm8.27 14.18a13.58 13.58 0 01-11.32 5.41c-7.88 0-14.36-5.54-14.36-13.67 0-7.95 6-15.14 14.3-15.14 6.23 0 12.14 3.5 12.14 10.37 0 .82-.95.57-1.58.57h-18.26l-.24 3.05c0 6 3.17 12.78 10 12.78 3.23 0 6.1-2.16 8-4.71zm33.44-2.99c0 4.2-.5 6.11 4.45 6.43v1.27c-2.29-.07-4.64-.2-6.93-.26-2.48.06-4.89.19-7.37.26v-1.27c4.77-.32 4.45-1.85 4.45-6.05V33c0-4.39.19-10.62-5.85-10.62-5 0-8.14 3.87-8.14 8.52v9.85c0 4.2-.57 6.11 4.45 6.43v1.27c-2.29-.07-4.64-.2-6.93-.26-2.48.06-4.9.19-7.38.26v-1.28c4.77-.32 4.46-1.85 4.46-6.05v-7.81a59.38 59.38 0 00-.32-7.7c-.51-2.28-2.23-2-4.26-2V22.3c3.3-.38 5.66-1.4 8.77-2l.83 5.78h.12a10.88 10.88 0 0110.18-5.78c6 0 9.47 2.73 9.47 8.77zm22.57-11.19c1 0 3.11.32 3.11-1.27 0-3.94-2.16-6.48-6.17-6.48-4.76 0-6.67 3.62-7.43 7.75zM365 43.73a13.61 13.61 0 01-11.33 5.41c-7.88 0-14.36-5.54-14.36-13.67 0-7.95 6-15.14 14.31-15.14 6.22 0 12.14 3.5 12.14 10.37 0 .82-1 .57-1.6.57h-18.29l-.26 3.05c0 6 3.19 12.78 10 12.78 3.25 0 6.11-2.16 8-4.71z" fill="#001703"/></svg>