<?xml version="1.0" encoding="utf-8"?>
<!-- Generator: Adobe Illustrator 26.0.1, SVG Export Plug-In . SVG Version: 6.00 Build 0)  -->
<svg version="1.1" id="Layer_1" xmlns="http://www.w3.org/2000/svg" xmlns:xlink="http://www.w3.org/1999/xlink" x="0px" y="0px"
	 viewBox="0 0 3000 2000" style="enable-background:new 0 0 3000 2000;" xml:space="preserve">
<style type="text/css">
	.st0{display:none;fill:#2E3192;}
	.st1{font-family:'TranscendBlack';}
	.st2{font-size:337.9084px;}
	.st3{letter-spacing:33;}
	.st4{fill:#2E3192;}
	.st5{fill:#faa342;}
	.st6{font-family:'TranscendSemibold';}
	.st7{font-size:218.2929px;}
	.st8{font-size:169.5152px;}
	.st9{fill:url(#XMLID_00000142881866922281675890000014303248791925850003_);}
	.st10{fill:#FFFFFF;}
	.st11{fill:url(#XMLID_00000044170955074611202730000015005386322178691970_);}
	.st12{fill:url(#XMLID_00000008141045160419114660000005441079721537935035_);}
	.st13{fill:#787A79;}
	.st14{fill:none;}
	.st15{fill:url(#XMLID_00000096766910600365924520000009483932454378596254_);}
	.st16{fill:url(#XMLID_00000122721948836010469160000006003211286724358529_);}
	.st17{fill:url(#XMLID_00000159438459499069925240000010835892139359589563_);}
	.st18{fill:url(#XMLID_00000067230015618118644960000012896315109032633472_);}
	.st19{fill:url(#XMLID_00000147217501500578944010000008531990729090728584_);}
</style>
<text transform="matrix(1 0 0 1 1475.0234 1290.1406)" class="st0 st1 st2 st3">Pro</text>
<g>
	<g>
		<g>
			<path class="st4" d="M1125.1,1150.3c16.8-4.7,29.7-13.7,38.7-27c9-13.3,13.5-29.3,13.5-47.7c0-44.9-16.8-67.2-50.6-67.2
				c-8,0-15.8,1-23.1,2.9v1.4c3.9,3.9,5.9,9.8,5.9,17.6v208.3c0,5.5,0.8,10.2,2.3,14.1s3.3,6.8,5.3,8.6c2,1.8,4.9,3.3,8.6,4.3
				c3.7,1,6.8,1.6,9.2,1.8c2.5,0.2,6.3,0.2,11.5,0.2v10.4H992v-10.4c5.1,0,9,0,11.5-0.2c2.5-0.2,5.5-0.8,9.2-1.8
				c3.7-1,6.6-2.5,8.6-4.3c2-1.8,3.9-4.7,5.3-8.6s2.3-8.6,2.3-14.1v-213.8c0-5.5-0.8-10.2-2.3-14.1c-1.4-3.9-3.1-6.8-5.1-8.8
				c-2-2-4.9-3.5-8.6-4.5c-3.7-1-6.8-1.6-9.2-1.8c-2.5-0.2-6.1-0.2-11.3-0.2v-10.7h36.5c7.8,0,24.8-0.4,51.2-1.4
				c26.4-1,46.9-1.4,61.6-1.4c80.3,0,120.4,27.7,120.4,83.2c0,28.9-11.3,52.2-34,70s-56.9,26.8-102.8,27v-11.9L1125.1,1150.3z"/>
			<path class="st4" d="M1658.2,1278.1c-10.4,2.7-24.8,4.1-43,4.1c-21.3,0-39.9-2.9-55.9-8.6c-16-5.7-29.5-14.5-40.8-26.6
				c-11.3-12.1-20.7-26-28.3-41.8c-7.6-15.8-14.5-35.2-20.9-58.2c-7.2,0.8-13.5,1.2-18.8,1.2V1137c22.1-5.9,37.9-13.9,47.3-24
				c9.4-10,14.1-24.4,14.1-43c0-41.4-17.4-62.1-52.4-62.1c-11.5,0-21.1,0.8-28.9,2.5v1.4c3.9,3.9,5.9,9.8,5.9,17.6v208.7
				c0,7,0.8,12.7,2.7,17c1.8,4.3,4.7,7.2,8.6,8.8c3.9,1.6,7.2,2.7,9.8,3.1c2.7,0.4,6.6,0.6,11.7,0.6v10.4h-150.1v-10.4
				c5.1,0,9,0,11.5-0.2c2.5-0.2,5.5-0.8,9.2-1.8c3.7-1,6.6-2.5,8.6-4.3c2-1.8,3.9-4.7,5.3-8.6s2.3-8.6,2.3-14.1v-213.8
				c0-5.5-0.8-10.2-2.3-14.1c-1.4-3.9-3.1-6.8-5.1-8.8c-2-2-4.9-3.5-8.6-4.5c-3.7-1-6.8-1.6-9.2-1.8c-2.5-0.2-6.1-0.2-11.3-0.2
				v-10.7h36.5c7.8,0,27-0.4,57.8-1.2c30.7-0.8,51.4-1.2,62.1-1.2c78.4,0,117.8,24.2,117.8,72.5c0,18.2-6.1,34.4-18.2,48.7
				c-12.1,14.3-28.7,25.2-49.8,32.6l0.8,2c7.6-0.2,12.7,0.2,15.4,1.4c2.7,1.2,4.7,3.5,6.1,7c20.7,39.1,37.1,66.4,49.2,81.7
				c20.5,26.6,39.9,39.9,58.4,39.9c1.4,0,2.7-0.2,3.7-0.4L1658.2,1278.1z"/>
			<path class="st4" d="M1848,978.7c26,0,49.4,3.9,70,11.9c20.7,8,37.5,18.8,50.4,32.6c12.9,13.7,22.7,29.3,29.5,46.7
				c6.8,17.4,10,35.6,10,54.9c0,19.5-3.1,38.5-9.4,56.9c-6.3,18.4-15.8,35.4-28.3,51c-12.5,15.6-29.5,28.1-51,37.7
				c-21.5,9.6-46.1,14.3-73.7,14.3c-50.6,0-89.9-14.5-117.8-43.8c-27.9-29.3-41.8-64.7-41.8-106.3c0-19.3,3.1-37.9,9.4-55.9
				c6.3-18,15.8-34.6,28.3-49.8c12.5-15.2,29.5-27.4,51-36.7c21.5-9.2,46.1-13.9,73.7-13.9L1848,978.7z M1840.1,1008
				c-20.7,0-36.9,10-48.3,30.1c-11.5,20.1-17.2,47.9-17.2,83.8c0,39.7,7,72.1,20.9,97.1c13.9,25,32.8,37.5,56.5,37.5
				c21.1,0,37.3-10.2,48.7-30.7c11.5-20.5,17.2-48.5,17.2-84c0-40.6-7-73.1-20.9-97.5c-13.9-24.4-32.6-36.7-56.1-36.7L1840.1,1008z"
				/>
		</g>
		<text transform="matrix(1 0 0 1 991.9998 1485.5077)" class="st5 st6 st7">Plaster</text>
		<text transform="matrix(1 0 0 1 1001.9998 1651.8837)" class="st5 st6 st8">and Paint</text>
	</g>
	<g id="XMLID_00000154405895901100491380000001475894626981459107_">
		<g id="XMLID_00000161615890127034597170000014638373691549805710_">
			
				<linearGradient id="XMLID_00000135671377886781944040000002587066835811512458_" gradientUnits="userSpaceOnUse" x1="1767.7209" y1="605.7715" x2="1075.1603" y2="605.7715">
				<stop  offset="0.2458" style="stop-color:#2E3192"/>
				<stop  offset="0.3832" style="stop-color:#2F3693"/>
				<stop  offset="0.5551" style="stop-color:#324697"/>
				<stop  offset="0.7453" style="stop-color:#375F9E"/>
				<stop  offset="0.9473" style="stop-color:#3E83A6"/>
				<stop  offset="1" style="stop-color:#408DA9"/>
			</linearGradient>
			
				<path id="XMLID_00000119119061236139061490000010033406454883237305_" style="fill:url(#XMLID_00000135671377886781944040000002587066835811512458_);" d="
				M1767.7,726l-152.2,136l-540.4-418.6l153.6-93.9v0.1c6.1,9.7,15.2,18.3,27,25.4c38.7,23.3,118.2,79,171.3,139.6l4.7,5.3l1.6-6.8
				c0.2-0.7,15.8-62.3,57.6-72.4l1.7-0.5l3,3.5c0,0-20.3,2.2-38.9,33.1c0,0,27,26.4,23.8,72c0,0-10.3-56.8-26.7-63.8l-3.4,12.2
				c0,0,26.4,31,21.5,70.5c-0.8,6.3-2.3,12.9-4.9,19.6c0,0-11.1-0.4-23.7-10.3c-12.6-10-230.1-170.5-237.5-176.4
				c-7.5-5.9-10,1.7-10,1.7l-3.4,7.9l4,23.2l452,342.5l12.1-14.4l-2.9-16.9L1501.7,621v-0.1c13.5-38,10.6-87.7,10.6-87.7l244.7,185
				L1767.7,726z"/>
			<g id="XMLID_00000079461432564305025720000012293006513581371525_">
				<path id="XMLID_00000110468999118386261040000013768874425883880864_" class="st4" d="M1785.6,740.7l-167,148.7l-3-2.3
					l-558.8-426.9c-2-1.5-2.4-4.4-0.9-6.5c1.5-2,4.4-2.4,6.5-0.9l555.8,424.6l161.3-143.7c1.9-1.7,4.8-1.5,6.5,0.4
					C1787.7,736.1,1787.5,739,1785.6,740.7z"/>
			</g>
			<g id="XMLID_00000163034423185963307510000016368920125242442375_">
				<g id="XMLID_00000025418299706451692570000013233568523204300464_">
					<path id="XMLID_00000083087736409150279790000015103280758278175104_" class="st5" d="M1483.1,435.5
						c-33.7,12.2-49.8,53.2-54.9,69.4c-65.9-73.1-158.1-129.7-168.6-136c-10.8-6.5-19.1-14.3-24.6-23.1c-3.5-5.5-6-11.6-7.7-18.7
						c0.9-4.9,2.5-8.8,4.5-10.7c1-0.9,1.9-1.3,3.3-1.3c8.5,0.2,71,35.9,101,53.1l0.9,0.5c27,15.5,50.4,28.8,59.1,32.3
						c4.2,1.7,8.4,3.6,12.5,5.4c12.4,5.5,22.1,9.7,29.6,8.5c2.8-0.5,5.2-1.8,7-3.6c2.5-2.5,3.6-5.5,3.8-8.6
						C1464.2,417.1,1476.8,429.3,1483.1,435.5z"/>
				</g>
				<path id="XMLID_00000154427361292839127790000001829119210683770788_" class="st4" d="M1430,381.2c4.1,9.1,5.6,14.4,6,17.4
					c0.4,2.6,0.1,3.4,0.1,3.5c-2.7,1.3-14.6-4-22.5-7.5c-4.1-1.8-8.5-3.8-12.8-5.5c-8-3.2-32.5-17.2-58.4-32
					c-55.9-32-96.3-54.7-107.1-54.9c-4.4-0.1-8.3,1.3-11.5,3.9c2.2-4.6,5.3-6.4,5.3-6.4s13.4-12,27.6-14.5
					c14.2-2.4,54.9,3.7,87.2,21.8c15.4,8.6,49.5,38.8,80.8,67.8C1426.4,376.4,1429.8,380.6,1430,381.2z"/>
			</g>
			<g id="XMLID_00000168105430227628504600000004299566034960242566_">
				<path id="XMLID_00000040548015098030008630000004244912467107548801_" class="st10" d="M1507.6,472.7
					c3.7,21.9,4.9,42.3,4.7,60.4c-0.3,25.8-3.6,47.1-6.8,62c-2.6,11.9-5.1,19.7-6.1,22.5c1.6-5.7,3.5-13.5,5.1-23.3
					c2.7-16.3,4.7-38,3.3-64.5c-0.7-13.5-2.2-28.2-4.8-44.1l-4.8-28.2c-0.3-1.9-1.7-3.3-3.4-3.7l-0.9-10
					C1493.9,443.9,1503.5,448.3,1507.6,472.7z"/>
			</g>
			<g id="XMLID_00000165232968834804383210000011548158601957373320_">
				<g>
					
						<linearGradient id="XMLID_00000170964936266407858150000017097364589563687578_" gradientUnits="userSpaceOnUse" x1="1197.5468" y1="503.6979" x2="1468.5616" y2="503.6979">
						<stop  offset="0.1564" style="stop-color:#2E3192"/>
						<stop  offset="0.2892" style="stop-color:#334B99"/>
						<stop  offset="0.47" style="stop-color:#3968A0"/>
						<stop  offset="0.6502" style="stop-color:#3D7CA5"/>
						<stop  offset="0.8279" style="stop-color:#3F89A8"/>
						<stop  offset="1" style="stop-color:#408DA9"/>
					</linearGradient>
					
						<path id="XMLID_00000142163627719559576600000016254005884755197630_" style="fill:url(#XMLID_00000170964936266407858150000017097364589563687578_);" d="
						M1468.5,594.8c0.5,2.5-1.2,4.9-3.8,5.3l-13.2,2.2l-252.1-189c-2.1-1.5-2.5-4.4-0.9-6.5c1.5-2,4.4-2.4,6.4-0.9l248.9,186.7
						l9.3-1.6C1465.7,590.6,1468.1,592.3,1468.5,594.8z"/>
				</g>
			</g>
			<g id="XMLID_00000112609742348541870320000009030897475312535464_">
				<g>
					
						<linearGradient id="XMLID_00000149357284105405208040000001483311218843297671_" gradientUnits="userSpaceOnUse" x1="1486.1299" y1="604.0279" x2="1655.2711" y2="604.0279">
						<stop  offset="0.1564" style="stop-color:#2E3192"/>
						<stop  offset="0.2892" style="stop-color:#334B99"/>
						<stop  offset="0.47" style="stop-color:#3968A0"/>
						<stop  offset="0.6502" style="stop-color:#3D7CA5"/>
						<stop  offset="0.8279" style="stop-color:#3F89A8"/>
						<stop  offset="1" style="stop-color:#408DA9"/>
					</linearGradient>
					
						<path id="XMLID_00000034082991505770144900000009242271998844911495_" style="fill:url(#XMLID_00000149357284105405208040000001483311218843297671_);" d="
						M1498.2,457.6l4.8,28.2c2.7,15.8,4.2,30.6,4.8,44.1c1.3,26.5-0.7,48.3-3.3,64.5c-1.6,9.9-3.5,17.7-5.1,23.3
						c-0.1,0.2-0.1,0.5-0.2,0.7c0,0.1-0.1,0.2-0.1,0.2c-0.1,0.1-0.1,0.2-0.1,0.2l0,0c-0.7,2.4-1.3,4.4-1.8,5.9l156.2,121.3
						c2,1.5,2.4,4.4,0.9,6.4c-0.7,1-1.8,1.6-2.9,1.8c-1.2,0.2-2.5-0.1-3.5-0.9l-161.7-125.5l1.3-3.3c0.1-0.3,5.2-13.5,8.6-37.2
						c2.4-16.7,3.9-38.6,2.1-64.8c-0.7-11-2.1-22.8-4.2-35.4l-1.3-7.7l-3.5-20.5c-0.4-2.5,1.3-4.9,3.8-5.3c0.6-0.1,1.3-0.1,1.9,0.1
						C1496.5,454.3,1497.9,455.7,1498.2,457.6z"/>
					<path id="XMLID_00000002349548498972990280000012604541695499900587_" class="st13" d="M1499.1,618.6c0,0.1,0,0.2-0.1,0.2l0,0
						C1499,618.8,1499,618.8,1499.1,618.6z"/>
				</g>
			</g>
		</g>
		<path id="XMLID_00000016769631128691369370000000823654741842730637_" class="st10" d="M1554.8,555.9l-3.2,28.3
			c-12.7,22.4-30.1,47.4-52.6,59.8l-131.4,69.8l77.6,83.3l11.1-9.6c11.2-13.3,48.5-58,62-69l24.1-22.8c15-12.2,31.6-19,49.7-25
			c19.7-6.6,47-5.8,67.4-1.8l50.5,9.9L1554.8,555.9z"/>
		<g id="XMLID_00000032626826007414153900000017394115337686696115_">
			<path id="XMLID_00000165224781494462888220000009005599009583045789_" class="st14" d="M1656.7,437.7l-4.6,3.5l111.8,147.5
				l4.6-3.5L1656.7,437.7z M1638.8,450.8l-14.1,13.8l108.5,143.1l18-8.7L1638.8,450.8z M1733.2,607.2l-108.1-142.6l13.6-13.3
				l111.8,147.5L1733.2,607.2z M1656.7,437.7l-4.6,3.5l111.8,147.5l4.6-3.5L1656.7,437.7z M1760.7,595.9l1.6-0.9l-117.6-155.1
				l-0.8,0.7l-0.5,0.5l-0.2-0.3l-0.8,0.7L1760,596.8l0.9-0.6L1760.7,595.9z M1638.8,450.8l-14.1,13.8l108.5,143.1l18-8.7
				L1638.8,450.8z M1733.2,607.2l-108.1-142.6l13.6-13.3l111.8,147.5L1733.2,607.2z M1602.4,477l-4.4,3.9l111.3,146.8l2.5-1.5
				l2.3-1.8L1602.4,477z M1642.5,441.8l-0.2-0.3l-42.3,37.1l2.3-1.8l0.1,0.1L1642.5,441.8z M1671.1,426.8l-4.6,3.5l111.8,147.5
				l4.6-3.5L1671.1,426.8z M1656.7,437.7l-4.6,3.5l111.8,147.5l4.6-3.5L1656.7,437.7z M1638.8,450.8l-14.1,13.8l108.5,143.1l18-8.7
				L1638.8,450.8z M1733.2,607.2l-108.1-142.6l13.6-13.3l111.8,147.5L1733.2,607.2z M1671.1,426.8l-4.6,3.5l111.8,147.5l4.6-3.5
				L1671.1,426.8z M1656.7,437.7l-4.6,3.5l111.8,147.5l4.6-3.5L1656.7,437.7z M1638.8,450.8l-14.1,13.8l108.5,143.1l18-8.7
				L1638.8,450.8z M1733.2,607.2l-108.1-142.6l13.6-13.3l111.8,147.5L1733.2,607.2z M1642.5,441.8l-0.2-0.3l-42.3,37.1l2.3-1.8
				l0.1,0.1L1642.5,441.8z M1671.1,426.8l-4.6,3.5l111.8,147.5l4.6-3.5L1671.1,426.8z M1656.7,437.7l-4.6,3.5l111.8,147.5l4.6-3.5
				L1656.7,437.7z M1638.8,450.8l-14.1,13.8l108.5,143.1l18-8.7L1638.8,450.8z M1733.2,607.2l-108.1-142.6l13.6-13.3l111.8,147.5
				L1733.2,607.2z M1671.1,426.8l-4.6,3.5l111.8,147.5l4.6-3.5L1671.1,426.8z M1656.7,437.7l-4.6,3.5l111.8,147.5l4.6-3.5
				L1656.7,437.7z M1638.8,450.8l-14.1,13.8l108.5,143.1l18-8.7L1638.8,450.8z M1733.2,607.2l-108.1-142.6l13.6-13.3l111.8,147.5
				L1733.2,607.2z M1671.1,426.8l-4.6,3.5l111.8,147.5l4.6-3.5L1671.1,426.8z M1656.7,437.7l-4.6,3.5l111.8,147.5l4.6-3.5
				L1656.7,437.7z M1638.8,450.8l-14.1,13.8l108.5,143.1l18-8.7L1638.8,450.8z M1733.2,607.2l-108.1-142.6l13.6-13.3l111.8,147.5
				L1733.2,607.2z M1671.1,426.8l-4.6,3.5l111.8,147.5l4.6-3.5L1671.1,426.8z M1656.7,437.7l-4.6,3.5l111.8,147.5l4.6-3.5
				L1656.7,437.7z M1638.8,450.8l-14.1,13.8l108.5,143.1l18-8.7L1638.8,450.8z M1733.2,607.2l-108.1-142.6l13.6-13.3l111.8,147.5
				L1733.2,607.2z M1671.1,426.8l-4.6,3.5l111.8,147.5l4.6-3.5L1671.1,426.8z M1656.7,437.7l-4.6,3.5l111.8,147.5l4.6-3.5
				L1656.7,437.7z M1638.8,450.8l-14.1,13.8l108.5,143.1l18-8.7L1638.8,450.8z M1733.2,607.2l-108.1-142.6l13.6-13.3l111.8,147.5
				L1733.2,607.2z M1671.1,426.8l-4.6,3.5l111.8,147.5l4.6-3.5L1671.1,426.8z M1656.7,437.7l-4.6,3.5l111.8,147.5l4.6-3.5
				L1656.7,437.7z M1638.8,450.8l-14.1,13.8l108.5,143.1l18-8.7L1638.8,450.8z M1733.2,607.2l-108.1-142.6l13.6-13.3l111.8,147.5
				L1733.2,607.2z M1671.1,426.8l-4.6,3.5l111.8,147.5l4.6-3.5L1671.1,426.8z M1656.7,437.7l-4.6,3.5l111.8,147.5l4.6-3.5
				L1656.7,437.7z M1638.8,450.8l-14.1,13.8l108.5,143.1l18-8.7L1638.8,450.8z M1733.2,607.2l-108.1-142.6l13.6-13.3l111.8,147.5
				L1733.2,607.2z M1671.1,426.8l-4.6,3.5l111.8,147.5l4.6-3.5L1671.1,426.8z M1656.7,437.7l-4.6,3.5l111.8,147.5l4.6-3.5
				L1656.7,437.7z M1638.8,450.8l-14.1,13.8l108.5,143.1l18-8.7L1638.8,450.8z M1733.2,607.2l-108.1-142.6l13.6-13.3l111.8,147.5
				L1733.2,607.2z M1663.6,404l-97.4,73.8l137.9,181.9l97.4-73.8L1663.6,404z M1632.6,431.2l7.7,10.2l-41.2,31.2l-7.7-10.2
				L1632.6,431.2z M1597.8,480.5l-14.7,12.9l-4-5.3l63.7-48.3l0.5,0.7l-0.3,0.3l-0.8,0.7l-42.3,37.1L1597.8,480.5z M1725.8,639.7
				l-6.5-8.5l-2.3,1.8l-2.3,1.8l6.4,8.5l-18.4,13.9l-134.4-177.2l18.4-13.9l7.7,10.2l-15.8,12l4.5,5.9l15-13.1l111.3,146.8l2.5-1.5
				l2.3-1.8L1602.4,477l40.1-35.2l117.5,155l0.9-0.6l0.3-0.2l0.5,0.6l-0.3,0.2l-2,1.6l7.5,9.9L1725.8,639.7z M1771.6,604.9l-7.4-9.8
				l2.4-1.9l-0.4-0.6l-3.9,2.4l-117.6-155.1l7.9-6.9l-0.5-0.6l-7.2,5.5l-7.7-10.2l10.6-8.1l134.4,177.2L1771.6,604.9z M1652.5,416.1
				l10.6-8l134.4,177.2l-10.6,8L1652.5,416.1z M1624.6,464.6l108.5,143.1l18-8.7l-112.3-148.2L1624.6,464.6z M1733.2,607.2
				l-108.1-142.6l13.6-13.3l111.8,147.5L1733.2,607.2z M1768.6,585.2l-111.8-147.5l-4.6,3.5l111.8,147.5L1768.6,585.2z
				 M1666.5,430.3l111.8,147.5l4.6-3.5l-111.8-147.5L1666.5,430.3z M1638.8,450.8l-14.1,13.8l108.5,143.1l18-8.7L1638.8,450.8z
				 M1733.2,607.2l-108.1-142.6l13.6-13.3l111.8,147.5L1733.2,607.2z M1656.7,437.7l-4.6,3.5l111.8,147.5l4.6-3.5L1656.7,437.7z
				 M1671.1,426.8l-4.6,3.5l111.8,147.5l4.6-3.5L1671.1,426.8z M1638.8,450.8l-14.1,13.8l108.5,143.1l18-8.7L1638.8,450.8z
				 M1733.2,607.2l-108.1-142.6l13.6-13.3l111.8,147.5L1733.2,607.2z M1656.7,437.7l-4.6,3.5l111.8,147.5l4.6-3.5L1656.7,437.7z
				 M1671.1,426.8l-4.6,3.5l111.8,147.5l4.6-3.5L1671.1,426.8z M1638.8,450.8l-14.1,13.8l108.5,143.1l18-8.7L1638.8,450.8z
				 M1733.2,607.2l-108.1-142.6l13.6-13.3l111.8,147.5L1733.2,607.2z M1656.7,437.7l-4.6,3.5l111.8,147.5l4.6-3.5L1656.7,437.7z
				 M1671.1,426.8l-4.6,3.5l111.8,147.5l4.6-3.5L1671.1,426.8z M1638.8,450.8l-14.1,13.8l108.5,143.1l18-8.7L1638.8,450.8z
				 M1733.2,607.2l-108.1-142.6l13.6-13.3l111.8,147.5L1733.2,607.2z M1656.7,437.7l-4.6,3.5l111.8,147.5l4.6-3.5L1656.7,437.7z
				 M1671.1,426.8l-4.6,3.5l111.8,147.5l4.6-3.5L1671.1,426.8z M1638.8,450.8l-14.1,13.8l108.5,143.1l18-8.7L1638.8,450.8z
				 M1733.2,607.2l-108.1-142.6l13.6-13.3l111.8,147.5L1733.2,607.2z M1656.7,437.7l-4.6,3.5l111.8,147.5l4.6-3.5L1656.7,437.7z
				 M1671.1,426.8l-4.6,3.5l111.8,147.5l4.6-3.5L1671.1,426.8z M1638.8,450.8l-14.1,13.8l108.5,143.1l18-8.7L1638.8,450.8z
				 M1733.2,607.2l-108.1-142.6l13.6-13.3l111.8,147.5L1733.2,607.2z M1656.7,437.7l-4.6,3.5l111.8,147.5l4.6-3.5L1656.7,437.7z
				 M1671.1,426.8l-4.6,3.5l111.8,147.5l4.6-3.5L1671.1,426.8z M1638.8,450.8l-14.1,13.8l108.5,143.1l18-8.7L1638.8,450.8z
				 M1733.2,607.2l-108.1-142.6l13.6-13.3l111.8,147.5L1733.2,607.2z M1656.7,437.7l-4.6,3.5l111.8,147.5l4.6-3.5L1656.7,437.7z
				 M1671.1,426.8l-4.6,3.5l111.8,147.5l4.6-3.5L1671.1,426.8z M1638.8,450.8l-14.1,13.8l108.5,143.1l18-8.7L1638.8,450.8z
				 M1733.2,607.2l-108.1-142.6l13.6-13.3l111.8,147.5L1733.2,607.2z M1656.7,437.7l-4.6,3.5l111.8,147.5l4.6-3.5L1656.7,437.7z
				 M1671.1,426.8l-4.6,3.5l111.8,147.5l4.6-3.5L1671.1,426.8z M1642.5,441.8l-0.2-0.3l-42.3,37.1l2.3-1.8l0.1,0.1L1642.5,441.8z
				 M1602.4,477l-4.4,3.9l111.3,146.8l2.5-1.5l2.3-1.8L1602.4,477z M1638.8,450.8l-14.1,13.8l108.5,143.1l18-8.7L1638.8,450.8z
				 M1733.2,607.2l-108.1-142.6l13.6-13.3l111.8,147.5L1733.2,607.2z M1760.7,595.9l1.6-0.9l-117.6-155.1l-0.8,0.7l-0.5,0.5
				l-0.2-0.3l-0.8,0.7L1760,596.8l0.9-0.6L1760.7,595.9z M1656.7,437.7l-4.6,3.5l111.8,147.5l4.6-3.5L1656.7,437.7z M1671.1,426.8
				l-4.6,3.5l111.8,147.5l4.6-3.5L1671.1,426.8z M1638.8,450.8l-14.1,13.8l108.5,143.1l18-8.7L1638.8,450.8z M1733.2,607.2
				l-108.1-142.6l13.6-13.3l111.8,147.5L1733.2,607.2z M1656.7,437.7l-4.6,3.5l111.8,147.5l4.6-3.5L1656.7,437.7z M1671.1,426.8
				l-4.6,3.5l111.8,147.5l4.6-3.5L1671.1,426.8z M1602.4,477l-4.4,3.9l111.3,146.8l2.5-1.5l2.3-1.8L1602.4,477z M1638.8,450.8
				l-14.1,13.8l108.5,143.1l18-8.7L1638.8,450.8z M1733.2,607.2l-108.1-142.6l13.6-13.3l111.8,147.5L1733.2,607.2z M1638.8,450.8
				l-14.1,13.8l108.5,143.1l18-8.7L1638.8,450.8z M1733.2,607.2l-108.1-142.6l13.6-13.3l111.8,147.5L1733.2,607.2z"/>
			
				<rect id="XMLID_00000019637025242827476650000014359603066283509941_" x="1718.2" y="631.5" transform="matrix(0.7967 -0.6044 0.6044 0.7967 -35.8517 1170.0121)" class="st5" width="5.8" height="13.6"/>
			
				<rect id="XMLID_00000008106588294920872150000014594345919389769095_" x="1589.3" y="460.2" transform="matrix(0.7967 -0.6043 0.6043 0.7967 40.6404 1057.3309)" class="st5" width="5.8" height="16"/>
			
				<rect id="XMLID_00000123413044433076658410000008114093871610403239_" x="1653.1" y="459.8" transform="matrix(0.797 -0.6039 0.6039 0.797 2.4829 1112.1852)" class="st5" width="5.8" height="185.2"/>
			
				<rect id="XMLID_00000016767807684530518580000003752076955880980159_" x="1763.5" y="595.1" transform="matrix(0.7968 -0.6043 0.6043 0.7968 -5.2809 1189.9528)" class="st5" width="5.8" height="15.4"/>
			
				<rect id="XMLID_00000000935903051199793850000003511422450337162675_" x="1635.1" y="425.5" transform="matrix(0.7967 -0.6043 0.6043 0.7967 70.9646 1077.9877)" class="st5" width="5.8" height="16"/>
			
				<rect id="XMLID_00000108268010375559432930000000922636091589897117_" x="1700.8" y="420.8" transform="matrix(0.7963 -0.605 0.605 0.7963 33.2813 1135.4354)" class="st5" width="2.9" height="195.1"/>
			
				<rect id="XMLID_00000146480504009537937870000008777539892084731577_" x="1714.5" y="392.4" transform="matrix(0.797 -0.6039 0.6039 0.797 42.6848 1139.9437)" class="st5" width="5.8" height="228.2"/>
			
				<linearGradient id="XMLID_00000131336864339962643190000012051582777311998111_" gradientUnits="userSpaceOnUse" x1="1889.5917" y1="382.7876" x2="1830.157" y2="425.5389">
				<stop  offset="0.1564" style="stop-color:#2E3192"/>
				<stop  offset="0.2892" style="stop-color:#334B99"/>
				<stop  offset="0.47" style="stop-color:#3968A0"/>
				<stop  offset="0.6502" style="stop-color:#3D7CA5"/>
				<stop  offset="0.8279" style="stop-color:#3F89A8"/>
				<stop  offset="1" style="stop-color:#408DA9"/>
			</linearGradient>
			
				<path id="XMLID_00000173125630130723173700000001596334256537184657_" style="fill:url(#XMLID_00000131336864339962643190000012051582777311998111_);" d="
				M1784.8,552.4l-0.4,0.3l0.5-0.1l0.1-0.1C1785,552.5,1784.8,552.5,1784.8,552.4z M1784.8,552.4l-0.4,0.3l0.5-0.1l0.1-0.1
				C1785,552.5,1784.8,552.5,1784.8,552.4z M1784.8,552.4l-0.4,0.3l0.5-0.1l0.1-0.1C1785,552.5,1784.8,552.5,1784.8,552.4z
				 M1784.8,552.4l-0.4,0.3l0.5-0.1l0.1-0.1C1785,552.5,1784.8,552.5,1784.8,552.4z M1940.4,480.5l-9.9-22.9l-42.8-56.5l-9.2-21.1
				l-9.8-3.6l-37.3-49.2l-28.8-28.5l-78.5,59.6l-6.4,6.5l-14.1,14.6l-0.1,0.1l-3.2,3.4l11.6-8.7c1.1-0.8,2.2-1.7,3.3-2.6l7.9-6
				l-1.2,1.4c0.7-0.4,1.3-0.8,2-1.1c5.7-3.4,11.2-5.6,15.5-4.9c6.7,1,13.9,4.1,18.4,8.7c0.1,0.1,0.1,0.1,0.1,0.1
				c2.8,2.9,4.6,6.4,4.8,10.5c0.1,0.3,0.1,0.6,0.1,0.9c0.5-0.3,0.8-0.5,1.2-0.6c9.8-4.1,12.9,12.4,19.2,22.4
				c5.1,8.1,5.1,18.7,9.9,27.1c2.6,4.3,6.5,7.7,11.2,9.6c0.3,0.2,0.7,0.4,0.9,0.4c8.7,3.6,19.3,2.7,26.6-3.2
				c-0.5,10.6-0.9,21.4,1.1,31.8c2,10.4,6.9,20.6,15.3,27c5.9,4.6,13.6,7.4,17.7,13.7c4.2,6.4,3.2,15.2-0.3,22
				c-3.6,6.9-9.4,12.2-15,17.4c-4.5,4.2-9.4,8.4-14.6,11.9c-0.5,0.4-0.9,0.7-1.3,0.9c-1.1,0.8-2.3,1.4-3.5,2.1c-1,0.6-1.9,1-2.8,1.5
				c-1.9,0.9-3.9,1.6-5.9,2.2l-22.5,11.5l-10.2-13.4l-0.8,0.5l-0.7,0.4l10.5,13.9l1.5-0.8l42.2-21.3h0.1l15.5-7.9l8.3-4.1l78.6-59.6
				L1940.4,480.5z"/>
			<g id="XMLID_00000094611773146285735740000010178993926210897538_">
				<path id="XMLID_00000006705113395195005920000009710484499022032018_" class="st4" d="M1715.1,371.6c2.3-1.6,4.5-3.2,6.7-4.6
					l1.2-1.4L1715.1,371.6z M1771.6,541.5l-4-5.3l-18.9-24.9l-1.7-0.7l33,43.6l0.8-0.6L1771.6,541.5z M1781.5,554.6l-1,0.1l7.6,10.1
					l0.2-0.1l0.6-0.5L1781.5,554.6z M1732,489.3l-0.5-0.4l0.1-0.1l-10.4-13.7l-0.8-0.4l0.3-0.3l-17.1-22.6l-0.5,0.5l-0.6-1.8
					l-29.7-39.2l-0.7,0.8l74.6,98.3l0.8-0.5L1732,489.3z M1695.5,388.1c-2.7,2.4-5,4.7-6.7,7.3l9.7-9.9
					C1697.4,386.5,1696.4,387.3,1695.5,388.1z"/>
				<path id="XMLID_00000143602797770179318120000012405730343482401700_" class="st4" d="M1757.7,369.7
					C1757.8,369.8,1757.8,369.8,1757.7,369.7l0.5-0.3L1757.7,369.7z M1762.6,380.2c0.1,0.3,0.1,0.6,0.1,0.9c0.5-0.3,0.8-0.5,1.2-0.6
					l1.6-2.3L1762.6,380.2z M1804.2,439.7c0.3,0.2,0.7,0.4,0.9,0.4l2.8-3.2L1804.2,439.7z M1695.5,388.1c-2.7,2.4-5,4.7-6.7,7.3
					l9.7-9.9C1697.4,386.5,1696.4,387.3,1695.5,388.1z M1695.5,388.1c-2.7,2.4-5,4.7-6.7,7.3l9.7-9.9
					C1697.4,386.5,1696.4,387.3,1695.5,388.1z M1787.9,565.8l-0.5-0.7L1671.3,412l1.1-1.2l27.6-27.9h0.1l11.6-8.7
					c1.1-0.8,2.2-1.7,3.3-2.6c2.3-1.6,4.5-3.2,6.7-4.6c0.7-0.4,1.3-0.8,2-1.1l4.2-4.9l-24.5,18.4l-0.1,0.1l-3.8,2.9l-27.6,27.8
					l-1.6,1.7l116.5,153.6l0.9,1.2l0.6-0.4L1787.9,565.8z M1695.5,388.1c-2.7,2.4-5,4.7-6.7,7.3l9.7-9.9
					C1697.4,386.5,1696.4,387.3,1695.5,388.1z M1695.5,388.1c-2.7,2.4-5,4.7-6.7,7.3l9.7-9.9
					C1697.4,386.5,1696.4,387.3,1695.5,388.1z"/>
				<path id="XMLID_00000090989173140382263090000015788737433570357167_" class="st10" d="M1702.8,381.8c-1.2,1-2.5,2.1-3.5,3
					l1.2-1.3L1702.8,381.8z"/>
			</g>
			<g id="XMLID_00000132062851256218452280000010756460153952249524_">
				<path id="XMLID_00000160871197736865740580000016974815264389672856_" class="st14" d="M1299.8,825.3c-0.1-0.1-0.2-0.3-0.3-0.4
					c-5.4-7-5-13.9-5-13.9c-6.4,9.6-6.1,17.1-4.9,21.4c0,0.2,0.1,0.4,0.2,0.7c0.7,2.3,1.6,3.4,1.6,3.4c-2.7,1.5-6.1,2.3-9.5,2.6
					h-1.1c-6.6,0.3-12.6-1.1-12.6-1.1s-3.4,6.5-2.4,12.4c0.1,0.3,0.1,0.6,0.2,0.8c0.3,1.2,0.9,2.5,1.6,3.5c0.9,1.1,2.8,1.2,5.5,0.6
					c12.3-2.8,39.2-20.5,39.2-20.5C1306.5,832.1,1302.5,828.7,1299.8,825.3z"/>
			</g>
			<g id="XMLID_00000093864769084415974210000018332535202009139869_">
				<path id="XMLID_00000147180150590521482930000007202958091655599260_" d="M1340.5,794.5c-0.1-0.2-0.2-0.4-0.5-0.6
					c-6.1-7.3-16.6-8.5-24.2-2.7c-7.6,5.8-9.3,16.4-4,24.1c0.1,0.2,0.3,0.4,0.4,0.7l0.1,0.1c6,7.8,17.1,9.4,24.9,3.4
					C1345,813.6,1346.5,802.5,1340.5,794.5z M1333.7,814.9c-5.2,4-12.7,2.9-16.7-2.3v-0.1l-0.3-0.4c-3.6-5.2-2.5-12.4,2.6-16.3
					c5.1-3.9,12.3-3,16.4,2l0.1,0.1l0.3,0.2C1340,803.4,1339,810.9,1333.7,814.9z"/>
			</g>
			<path id="XMLID_00000093876585673206576930000006259713460263399089_" class="st14" d="M1368.5,773.2c-0.1,0-0.2-0.1-0.3-0.2"/>
			<path id="XMLID_00000181805558178186930470000002595212335773770911_" class="st14" d="M1328.6,771.4
				C1328.6,771.4,1328.6,771.4,1328.6,771.4"/>
			<g id="XMLID_00000037655953623168546750000007981503971220116921_">
				<path id="XMLID_00000086687308129217907030000002734849370521480629_" class="st10" d="M1822.4,567.4l-22.5,11.5l-10.2-13.4
					l-0.8,0.5l-0.7,0.4l10.5,13.9l1.5-0.8l28-14.3C1826.4,566.1,1824.4,566.8,1822.4,567.4z M1834.6,561.6c-1.1,0.8-2.3,1.4-3.5,2.1
					l4-2L1834.6,561.6z"/>
				<path id="XMLID_00000009550662946453609640000014300184185945142719_" class="st4" d="M1836.3,560.8l-0.4-0.1
					c-0.5,0.4-0.9,0.7-1.3,0.9c-1.1,0.8-2.3,1.4-3.5,2.1c-1,0.6-1.9,1-2.8,1.5c-1.9,0.9-3.9,1.6-5.9,2.2l-22.5,11.5l-0.8,0.4
					L1789,566l-0.7,0.4l-0.5-0.6l-0.5-0.7l-0.6,0.4l0.9,1.2l10.9,14.5l2.2-1.1l41.7-21.8L1836.3,560.8z"/>
			</g>
			<g id="XMLID_00000144314204353231878850000003395071934260131499_">
				<path id="XMLID_00000023263829460988275920000002855283828650048919_" class="st5" d="M1625.6,464.6l13.1-12.8L1750,598.7
					l-16.7,8L1625.6,464.6z"/>
			</g>
			<polygon id="XMLID_00000057858953982383921570000007725681462749991815_" class="st5" points="1699.5,647 1692.7,637.9 
				1709.4,627.7 1711.9,626.2 1760,596.8 1760.9,596.2 1761.2,596 1761.7,596.7 1761.4,596.9 1759.5,598.5 1717,632.9 1714.7,634.7 
							"/>
			<path id="XMLID_00000093173835584257533980000007419399671677302928_" class="st5" d="M1764.2,595.1l2.4-1.9l-0.4-0.6l-3.9,2.4
				l-1.6,0.9l1,1.3L1764.2,595.1z M1762,596l-0.2,0.2l0,0L1762,596z"/>
			<g id="XMLID_00000039099169652018723110000014950810605152572045_">
				<polygon id="XMLID_00000160151279015835469270000008173646033430048924_" class="st5" points="1583.1,493.5 1579.1,488.2 
					1642.8,439.9 1643.4,440.6 1600,478.6 				"/>
				<path id="XMLID_00000075879391694593062590000001324841921095755153_" class="st5" d="M1598.1,480.9l4.4-3.9l40.1-35.2l0.8-0.7
					l0.5-0.5l-0.9-1.2l-64.3,48.7l4.5,5.9L1598.1,480.9z"/>
			</g>
			<path id="XMLID_00000139255007321954206930000004417857561906949022_" class="st5" d="M1643.9,440.6l0.8-0.7l7.9-6.9l-0.5-0.6
				l-9.8,7.4l1,1.3L1643.9,440.6z"/>
			
				<rect id="XMLID_00000148663654255973985320000016987329766826372259_" x="1707.4" y="420.6" transform="matrix(0.7971 -0.6039 0.6039 0.7971 37.1808 1137.0348)" width="5.8" height="185.1"/>
			
				<rect id="XMLID_00000150073337096225011060000013792610614701867665_" x="1721.8" y="409.8" transform="matrix(0.7967 -0.6044 0.6044 0.7967 47.0822 1144.595)" width="5.8" height="185.1"/>
			<path id="XMLID_00000040535534457556151780000010512717718842775173_" d="M1312.4,834.7c0,0-39.9,26.2-44.7,19.9
				c-0.8-1-1.3-2.2-1.6-3.4c-0.1-0.3-0.1-0.5-0.2-0.8c-1.1-5.8,2.3-12.4,2.3-12.4s6,1.4,12.6,1.1c0,0,0,0,0,0c0.4,0,0.7,0,1.1,0
				c0,0,0,0,0,0c3.3-0.3,6.6-1,9.4-2.5c0,0-0.9-1.2-1.6-3.5c-0.1-0.2-0.1-0.4-0.2-0.6c-1.2-4.3-1.5-11.7,4.9-21.4
				c0,0-0.3,6.9,5,13.9c0.1,0.1,0.2,0.3,0.4,0.4C1302.5,828.7,1306.5,832.1,1312.4,834.7z"/>
			<path id="XMLID_00000105397251378009666650000011995559192437081753_" d="M1632.6,581.2c0,0-2.5,1-6.2,2.9c2.1-3,3-5.1,3.4-6.6
				L1632.6,581.2z"/>
			<path id="XMLID_00000051353708379262933620000009707499121949372081_" d="M1382.7,765.9l-25.5-7.3c0,0,55.8-48.7,106.5-74.2
				c16.5-8.3,64.2-47.3,81.9-64.4c17.7-17.1,41.3-33.8,44.1-64.6c1.3-14.4,1-29.6,1-29.6l32.6,43c0,0-2.8,17.8-13.6,25
				c0,0-19.1-1.1-28.4,5.5c-9.2,6.7-51.4,37.3-65.2,50.4c-13.7,13.2-40.9,35.6-46.9,43C1463.1,700.2,1398.5,757.3,1382.7,765.9z"/>
			<path id="XMLID_00000153689489135937447340000002844727591756546441_" d="M1346,758.1c0,0,13.3-20.6,28-31.8
				c38.1-28.9,87.4-47.2,87.4-47.2s-39.9,23.5-69.7,41.2C1362,738,1346,758.1,1346,758.1z"/>
			<path id="XMLID_00000128459994281389459440000008054426920076183459_" class="st5" d="M1700.2,658.5l-6.9,5.2l-1.3-0.4
				c-0.5-0.1-41.3-11-56.1-10.5c-2.1,0.1-4.6,0.1-7.6,0c-17.9-0.3-51.1-0.7-83,23.5c-19.4,14.7-41.9,37.9-63.6,60.4
				c-20.6,21.4-40.1,41.4-56.1,53.6c-33.5,25.3-138.5,76-145.9,77.4c-7.6,1.5-21.7,1.1-27.4-6.2c-6.7-9-2.1-21.5,1.3-28.2
				c3.4-6.7,80.5-94.1,114-119.6c16.1-12.1,40.6-25.4,66.7-39.5c27.5-14.8,56-30.2,75.3-44.9c31.9-24.2,40.5-56.3,45.1-73.5
				c0.8-2.8,1.4-5.4,2-7.4c4.4-14.1,5.1-56.4,5.1-56.8v-1.4l6.9-5.2l3.5,4.6l-4.6,3.5c-0.1,7.7-1,43.5-5.3,57c-0.7,2-1.2,4.3-2,7.1
				c-4.7,18-13.6,51.3-47.1,76.8c-19.8,15-48.5,30.4-76.2,45.4c-25.9,14-50.3,27.1-66,39c-33.4,25.3-109.8,112.8-112.3,117.6
				c-2.3,4.4-6.9,15.4-1.9,22c3.7,4.7,14.9,5.4,21.6,4.1c0.6-0.1,2.2-0.8,4.6-1.8c7.4-3.1,22.6-10.3,40.6-19.3
				c0.1,0,0.2-0.1,0.3-0.2c2.8-1.4,5.9-2.8,8.9-4.4l0.1-0.1c32.7-16.3,71.1-37.1,89-50.6c15.7-11.9,35-31.9,55.4-53
				c21.8-22.6,44.5-45.9,64.3-61c33.6-25.4,68.1-25,86.6-24.7c2.8,0,5.3,0.1,7.4,0c14.2-0.5,48.9,8.3,56.3,10.3l4.6-3.5
				L1700.2,658.5z"/>
			<path id="XMLID_00000112595244912849644150000010643684785659704489_" class="st5" d="M1800.3,579.5l-0.4-0.6l-10.2-13.4
				l-42.2-55.6l-15.6-20.6l-0.4-0.5l-10.4-13.7l-0.5-0.7l-17.1-22.6l-1-1.3l-29.7-39.2l-0.9-1.1l-7.8-10.3l-104,78.8l141.4,186.5
				l104-78.8L1800.3,579.5z M1786.8,593.3l-4.5,3.5h-0.1v0.1l-10.6,8l-68.8,52.2l-134.4-177.2l68.8-52.2l10.6-8.1h0.1l4.5-3.5h0.1
				l10.6-8l134.4,177.2L1786.8,593.3L1786.8,593.3z"/>
			
				<rect id="XMLID_00000086673793547188701370000000064297491945408696_" x="1590" y="445.5" transform="matrix(0.7969 -0.6042 0.6042 0.7969 55.2241 1068.0316)" class="st10" width="51.7" height="12.8"/>
			<polygon id="XMLID_00000066505506386539332410000009694940961517191340_" class="st10" points="1767,608.4 1725.8,639.7 
				1719.3,631.1 1717,632.9 1759.5,598.5 			"/>
			<path id="XMLID_00000089554465779533826120000017305294434387760790_" class="st10" d="M1663.1,408.1l-10.6,8l134.4,177.2l10.6-8
				L1663.1,408.1z"/>
			<path id="XMLID_00000023272868688902701770000007455364604153056956_" class="st10" d="M1647.9,419.6l-10.6,8.1l7.7,10.2l7.2-5.5
				l0.5,0.6l-7.9,6.9L1762.3,595l3.9-2.4l0.4,0.6l-2.4,1.9l7.4,9.8l10.6-8.1L1647.9,419.6z"/>
			<path id="XMLID_00000003091345675789167600000016260392950282511005_" class="st10" d="M1760,596.8l-117.5-155l-40.1,35.2
				l111.8,147.4l-2.3,1.8L1760,596.8z M1733.1,607.6l-108.5-143.1l14.1-13.8L1751.1,599L1733.1,607.6z"/>
			<polygon id="XMLID_00000132785826696037401900000009480516760547627708_" class="st10" points="1721.1,643.2 1702.8,657.1 
				1568.4,479.9 1586.8,465.9 1594.5,476.1 1578.6,488.1 1583.1,494 1598.1,480.9 1709.4,627.7 1692.7,637.9 1699.5,647 
				1714.7,634.7 			"/>
			<path id="XMLID_00000009557424788971953830000016464565326347588765_" class="st10" d="M1629.8,577.5c-0.4,1.5-1.3,3.6-3.4,6.6
				c3.8-1.9,6.2-2.9,6.2-2.9L1629.8,577.5z M1569.9,491.5l-2.3,1.7c-0.1,7.7-1,43.5-5.3,57c-0.7,2-1.2,4.3-2,7.1
				c-4.7,18-13.6,51.3-47.1,76.8c-19.8,15-48.5,30.4-76.2,45.4c-25.9,14-50.3,27.1-66,39c-14.2,10.7-35.9,32.5-56.6,54.4
				c3-1.9,6.1-3.7,9.2-5.6c24-14.6,48.3-29.2,73.3-42.5c22-14.7,46.5-30.2,66.8-40.4c16.4-8.3,64.2-47.3,81.9-64.4
				c17.7-17.2,41.3-33.8,44-64.6c1.3-14.5,0.9-29.7,0.9-29.7l39.2,51.7c0.6-1.7,0.4-2.5,0.4-2.5l61.8,82.2l0.1,0.1l2.3-1.7
				L1569.9,491.5z M1299.8,825.3c-0.1-0.1-0.2-0.3-0.3-0.4c-5.4-7-5-13.9-5-13.9c-6.4,9.6-6.1,17.1-4.9,21.4c0,0.2,0.1,0.4,0.2,0.7
				c0.7,2.3,1.6,3.4,1.6,3.4c-2.7,1.5-6.1,2.3-9.5,2.6h-1.1c-6.6,0.3-12.6-1.1-12.6-1.1s-3.4,6.5-2.4,12.4c0.1,0.3,0.1,0.6,0.2,0.8
				c0.2,0.5,3.4,2.2,7.1,4.1c4.4,2.2,9.6,4.6,10,5.2c-3.3-4.3,24.2-11.6,40.6-19.3c0.1-0.1,0.2-0.1,0.3-0.2
				c5.6-3.7,9.8-6.6,10.9-7.4c0.1,0,0.1-0.1,0.2-0.2C1329.1,830.6,1312.3,834.6,1299.8,825.3z M1630.2,575.1c0,0,0.1,0.4-0.1,1.1
				c0,0.4-0.1,0.8-0.3,1.3c-1.2,4.3-7,14.7-31.9,34.5c-34.9,27.5-101.8,62.3-110.8,71.5c-9,9.1-90.3,80.2-111.8,91.9
				c0,0-20.5-18.2-46-4.5c0,0,9.5,0.7,20.1,14.6c10.6,13.9,2.9,31,2.9,31s20.2-6.6,38.4-20.4c18.1-13.7,57.6-49.3,79.2-76.1
				c21.6-26.7,60.7-57.6,74.6-64.2c14-6.6,45.6-19.3,79.7-21.2c15.6-0.8,54.2,9.7,59.1,11.2h0.1c0.3,0.1,0.5,0.1,0.5,0.1
				L1630.2,575.1z M1340.5,794.5c-0.1-0.2-0.2-0.4-0.5-0.6c-6.1-7.3-16.6-8.5-24.2-2.7c-7.6,5.8-9.3,16.4-4,24.1
				c0.1,0.2,0.3,0.4,0.4,0.7l0.1,0.1c6,7.8,17.1,9.4,24.9,3.4C1345,813.6,1346.5,802.5,1340.5,794.5z M1333.7,814.9
				c-5.2,4-12.7,2.9-16.7-2.3v-0.1l-0.3-0.4c-3.6-5.2-2.5-12.4,2.6-16.3c5.1-3.9,12.3-3,16.4,2l0.1,0.1l0.3,0.2
				C1340,803.4,1339,810.9,1333.7,814.9z M1351.2,750.8c-2.6,3.6-4.4,6.3-4.9,7.2c0.8-0.9,3.7-4.4,8.8-9.5
				C1353.7,749.3,1352.4,750,1351.2,750.8z"/>
			
				<linearGradient id="XMLID_00000064335012310053418130000011919745407910407083_" gradientUnits="userSpaceOnUse" x1="1346.2483" y1="753.2264" x2="1355.0382" y2="753.2264">
				<stop  offset="0.1564" style="stop-color:#2E3192"/>
				<stop  offset="0.2892" style="stop-color:#334B99"/>
				<stop  offset="0.47" style="stop-color:#3968A0"/>
				<stop  offset="0.6502" style="stop-color:#3D7CA5"/>
				<stop  offset="0.8279" style="stop-color:#3F89A8"/>
				<stop  offset="1" style="stop-color:#408DA9"/>
			</linearGradient>
			
				<path id="XMLID_00000073685767456603876710000000321091154186428326_" style="fill:url(#XMLID_00000064335012310053418130000011919745407910407083_);" d="
				M1351.2,750.8c-2.6,3.6-4.4,6.3-4.9,7.2c0.8-0.9,3.7-4.4,8.8-9.5C1353.7,749.3,1352.4,750,1351.2,750.8z"/>
			
				<linearGradient id="XMLID_00000033367067362812072370000015278932259115844792_" gradientUnits="userSpaceOnUse" x1="1254.6825" y1="692.8583" x2="1692.1042" y2="692.8583">
				<stop  offset="0.1564" style="stop-color:#2E3192"/>
				<stop  offset="0.2427" style="stop-color:#334B99"/>
				<stop  offset="0.3603" style="stop-color:#3968A0"/>
				<stop  offset="0.4775" style="stop-color:#3D7CA5"/>
				<stop  offset="0.5931" style="stop-color:#3F89A8"/>
				<stop  offset="0.705" style="stop-color:#408DA9"/>
				<stop  offset="1" style="stop-color:#89B9CA"/>
			</linearGradient>
			
				<path id="XMLID_00000181791548120429972730000012964591777631823006_" style="fill:url(#XMLID_00000033367067362812072370000015278932259115844792_);" d="
				M1692,657.3l-8.6-11.5h-0.1l-53.1-70.7c0,0,0.1,0.4-0.1,1.1c0,0.4,0.3-1.7,0.1-1.1l-39.8-52c0,0,0.5,18-0.8,32.5
				c-2.7,30.7-26.4,47.4-44,64.6c-11.4,11.1-35.5,31.4-55.6,46.4c-0.2,0.1-0.4,0.2-0.7,0.3c-8.8,3.5-79.6,32.5-115.3,59.5
				c-9.1,7-17.7,17.5-22.9,24.5c1.2-0.8,2.6-1.5,3.9-2.3c-5.1,5-8,8.5-8.8,9.5c0.5-0.9,2.3-3.6,4.9-7.2
				c-9.3,5.5-18.4,11.1-27.5,16.5c-3,1.9-6.1,3.7-9.2,5.6c-11.4,12.2-22.5,24.4-31.7,34.8c-1.2,1.4-2.5,2.7-3.6,4.1
				c-11.6,13.2-19.7,22.8-20.4,24.3c-2.3,4.4-6.9,15.4-1.9,22c3.7,4.7,14.9,5.4,21.6,4.1c0.6-0.1,2.2-0.8,4.6-1.8
				c1.2-0.6,2.7-1.2,4.5-2c1.6-0.8,2.3-0.5,4.3-1.5c2.8-1.3,7.4-3.9,11-5.6c2.5-1.2,5.1-2.5,7.9-3.9c4.1-2,8.4-4.1,13-6.3
				c0.1-0.1,0.2-0.1,0.3-0.2c2.8-1.4,5.9-2.8,8.9-4.4c2.3-1.1,4.5-2.3,6.8-3.4c14.4-7.3,29.6-15.3,43.3-23c2-1.1,4-2.3,5.9-3.3
				c3.4-2,6.7-3.9,9.8-5.7c1.5-0.9,3-1.9,4.5-2.8c2.4-1.4,4.6-2.8,6.7-4.3c4.6-2.9,8.8-5.7,12.1-8.2c15.7-11.9,35-31.9,55.4-53
				c21.8-22.6,44.5-45.9,64.3-61c33.6-25.4,68.1-25,86.6-24.7c2.8,0,5.3,0.1,7.4,0C1649.9,646.6,1684.6,655.4,1692,657.3L1692,657.3
				z M1333.7,814.9c-5.2,4-12.7,2.9-16.7-2.3v-0.1l-0.3-0.4c-3.6-5.2-2.5-12.4,2.6-16.3c5.1-3.9,12.3-3,16.4,2l0.1,0.1l0.3,0.2
				C1340,803.4,1339,810.9,1333.7,814.9z"/>
		</g>
		<path id="XMLID_00000018235777791570532970000008411305708487282840_" class="st14" d="M1396.9,724.8
			c28.9-15.4,58.6-29.3,89.7-39.6"/>
		
			<linearGradient id="XMLID_00000181807001315678204860000007766098157630530688_" gradientUnits="userSpaceOnUse" x1="1830.2421" y1="434.3257" x2="1728.4825" y2="493.0766">
			<stop  offset="0" style="stop-color:#FFFFFF"/>
			<stop  offset="0.3442" style="stop-color:#FDFEFE"/>
			<stop  offset="0.513" style="stop-color:#F5FAFC"/>
			<stop  offset="0.6436" style="stop-color:#E8F4F7"/>
			<stop  offset="0.7545" style="stop-color:#D5EBF0"/>
			<stop  offset="0.853" style="stop-color:#BDE0E8"/>
			<stop  offset="0.9413" style="stop-color:#A0D2DD"/>
			<stop  offset="1" style="stop-color:#88C6D5"/>
		</linearGradient>
		
			<path id="XMLID_00000076575862105860029820000008719167530668521627_" style="fill:url(#XMLID_00000181807001315678204860000007766098157630530688_);" d="
			M1865.5,531.4c-3.6,6.9-9.4,12.2-15,17.4c-4.5,4.2-9.4,8.4-14.6,11.9c-0.5,0.4-0.9,0.7-1.3,0.9c-1.1,0.8-2.3,1.4-3.5,2.1
			c-1,0.6-1.9,1-2.8,1.5c-1.9,0.9-3.9,1.6-5.9,2.2c-3.4,1-7.1,1.5-10.8,1.2c-6-0.5-11.3-2.7-16.2-6.2c-0.1,0-0.3-0.1-0.4-0.2
			c-0.1-0.1-0.2-0.1-0.3-0.2c-0.1-0.1-0.3-0.2-0.4-0.3c-0.1-0.1-0.2-0.2-0.3-0.2c-0.2-0.2-0.3-0.3-0.4-0.3c-2.8-2.3-5.5-4.8-7.9-7.7
			c-0.1-0.2-0.3-0.4-0.5-0.6c-0.2-0.2-0.3-0.4-0.4-0.6c0,0-0.2,0-0.2-0.1c-0.2-0.2-0.4-0.4-0.5-0.7c-0.2-0.1-0.3-0.3-0.5-0.5
			c-2.7-3.4-5.3-7.1-7.7-10.8c-0.4-0.6-0.7-1-0.9-1.6c-0.2-0.2-0.3-0.4-0.4-0.6c-0.2-0.2-0.3-0.4-0.4-0.6c-0.7-1-1.2-2.1-1.9-3.1
			c-0.2-0.2-0.3-0.4-0.4-0.7c-0.2-0.2-0.3-0.4-0.4-0.7c-1.5-2.4-2.9-4.8-4.3-7.2c-0.2-0.3-0.3-0.5-0.4-0.7c-0.1-0.1-0.1-0.2-0.2-0.2
			c-0.1-0.2-0.2-0.4-0.3-0.6c-2.8-5-5.7-10-8.5-14.9c-0.1-0.3-0.3-0.6-0.4-0.8c-0.2-0.2-0.3-0.4-0.4-0.6c-0.3-0.7-0.7-1.2-1-1.8
			c-0.1-0.2-0.2-0.4-0.4-0.6c0-0.3-0.2-0.5-0.3-0.7c-1.3-2.5-2.7-4.8-4.2-7.2c-0.1-0.2-0.2-0.5-0.4-0.7c-0.1-0.2-0.2-0.5-0.4-0.7
			c-0.1-0.3-0.3-0.6-0.6-0.9c0-0.2-0.1-0.5-0.4-0.7c0-0.2-0.1-0.4-0.3-0.6c-1.6-2.7-3.2-5.6-4.9-8.2c-0.1-0.2-0.3-0.4-0.4-0.6
			c-0.1-0.3-0.3-0.5-0.4-0.7c-0.6-0.9-1.2-1.9-1.8-2.7c-0.1-0.2-0.2-0.4-0.4-0.6c-0.1-0.3-0.3-0.5-0.4-0.7c-2.6-4-5.2-7.8-8-11.6
			c-0.1-0.2-0.3-0.5-0.4-0.7c-0.2-0.2-0.4-0.4-0.5-0.6c-0.2-0.3-0.4-0.5-0.6-0.8c-0.2-0.2-0.3-0.4-0.4-0.6c-0.2-0.2-0.4-0.4-0.5-0.6
			c-2-2.6-4-5-6.1-7.5c-0.1-0.2-0.3-0.3-0.5-0.5c-0.1-0.2-0.3-0.4-0.5-0.6c-0.8-1-1.7-2-2.6-2.9c-0.1-0.2-0.3-0.4-0.5-0.6
			c-0.2-0.2-0.3-0.4-0.6-0.6c-2.8-3.1-6-6-9.2-8.9c-0.2-0.1-0.3-0.3-0.5-0.4c-0.2-0.2-0.4-0.3-0.6-0.5c-0.2-0.2-0.3-0.3-0.5-0.4
			l-0.6-0.6c-0.2-0.1-0.4-0.3-0.6-0.4c-5.6-4.6-11.3-9-16.2-14.4c-0.1-0.1-0.2-0.2-0.3-0.3c-0.1-0.1-0.2-0.2-0.3-0.3
			c-0.1-0.2-0.3-0.4-0.5-0.6c-0.1-0.2-0.3-0.3-0.4-0.5c-0.2-0.2-0.3-0.4-0.4-0.6c-0.2-0.2-0.4-0.4-0.6-0.6c-1.7-2.3-3-4.5-4.1-6.8
			c-0.1-0.2-0.2-0.4-0.3-0.7c-0.1-0.2-0.2-0.5-0.3-0.8c-0.4-0.9-0.7-1.9-0.8-2.8c-0.1-0.3-0.2-0.6-0.2-0.8c-0.1-0.3-0.1-0.6-0.2-0.9
			c-0.9-6.1,0.6-12,4.4-17.6c0.1-0.1,0.1-0.2,0.3-0.3l9.7-9.9c0.2-0.2,0.5-0.5,0.8-0.7c1-0.9,2.3-2,3.5-3c2.6-2.4,5.8-5,9-7.6
			c1.1-0.8,2.2-1.7,3.3-2.6c2.3-1.6,4.5-3.2,6.7-4.6c0.7-0.4,1.3-0.8,2-1.1c5.7-3.4,11.2-5.6,15.5-4.9c6.7,1,13.9,4.1,18.4,8.7
			c0.1,0.1,0.1,0.1,0.1,0.1c2.8,2.9,4.6,6.4,4.8,10.5c0.1,0.3,0.1,0.6,0.1,0.9c0.5-0.3,0.8-0.5,1.2-0.6c9.8-4.1,12.9,12.4,19.2,22.4
			c5.1,8.1,5.1,18.7,9.9,27.1c2.6,4.3,6.5,7.7,11.2,9.6c0.3,0.2,0.7,0.4,0.9,0.4c8.7,3.6,19.3,2.7,26.6-3.2
			c-0.5,10.6-0.9,21.4,1.1,31.8c2,10.4,6.9,20.6,15.3,27c5.9,4.6,13.6,7.4,17.7,13.7C1870,515.8,1869,524.6,1865.5,531.4z"/>
		
			<linearGradient id="XMLID_00000152985487524466387040000007031984681768829351_" gradientUnits="userSpaceOnUse" x1="1715.6174" y1="514.7692" x2="1756.7803" y2="479.0225">
			<stop  offset="0.1564" style="stop-color:#2E3192"/>
			<stop  offset="0.2892" style="stop-color:#334B99"/>
			<stop  offset="0.47" style="stop-color:#3968A0"/>
			<stop  offset="0.6502" style="stop-color:#3D7CA5"/>
			<stop  offset="0.8279" style="stop-color:#3F89A8"/>
			<stop  offset="1" style="stop-color:#408DA9"/>
		</linearGradient>
		
			<path id="XMLID_00000133510460435426503780000015554095851921586072_" style="fill:url(#XMLID_00000152985487524466387040000007031984681768829351_);" d="
			M1822.4,567.4l-22.5,11.5l-10.2-13.4l-42.2-55.6l-15.6-20.6l-0.4-0.5l-10.4-13.7l-0.5-0.7l-17.1-22.6l-1-1.3l-29.7-39.2l-0.5-0.6
			l27.6-27.9h0.1l11.6-8.7c-3.2,2.6-6.3,5.2-9,7.6l-2.3,1.7l-1.2,1.3c-0.3,0.2-0.6,0.5-0.8,0.7c-1.1,1-2.2,1.9-3,2.6
			c-2.7,2.4-5,4.7-6.7,7.3c-0.2,0.1-0.2,0.2-0.3,0.3c-3.8,5.6-5.3,11.4-4.4,17.6c0.1,0.3,0.1,0.6,0.2,0.9c0,0.2,0.1,0.5,0.2,0.8
			c0.2,0.9,0.5,1.9,0.8,2.8c0.1,0.3,0.2,0.6,0.3,0.8c0.1,0.3,0.2,0.5,0.3,0.7c1,2.3,2.4,4.5,4.1,6.8c0.2,0.2,0.4,0.4,0.6,0.6
			c0.1,0.2,0.2,0.4,0.4,0.6c0.1,0.2,0.3,0.3,0.4,0.5c0.2,0.2,0.4,0.4,0.5,0.6c0.1,0.1,0.2,0.2,0.3,0.3c0.1,0.1,0.2,0.2,0.3,0.3
			c4.8,5.4,10.6,9.7,16.2,14.4c0.2,0.1,0.4,0.3,0.6,0.4l0.6,0.6c0.2,0.1,0.3,0.2,0.5,0.4c0.2,0.2,0.4,0.3,0.6,0.5
			c0.2,0.1,0.3,0.3,0.5,0.4c3.2,2.8,6.3,5.8,9.2,8.9c0.3,0.2,0.4,0.4,0.6,0.6c0.2,0.2,0.4,0.4,0.5,0.6c0.9,0.9,1.9,1.9,2.6,2.9
			c0.2,0.2,0.4,0.4,0.5,0.6c0.2,0.2,0.4,0.3,0.5,0.5c2.2,2.5,4.2,4.9,6.1,7.5c0.1,0.2,0.3,0.4,0.5,0.6c0.1,0.2,0.2,0.4,0.4,0.6
			c0.2,0.3,0.4,0.5,0.6,0.8c0.1,0.2,0.3,0.4,0.5,0.6c0.1,0.2,0.3,0.5,0.4,0.7c2.8,3.8,5.5,7.7,8,11.6c0.1,0.2,0.3,0.4,0.4,0.7
			c0.2,0.2,0.3,0.4,0.4,0.6c0.6,0.8,1.2,1.8,1.8,2.7c0.1,0.2,0.3,0.4,0.4,0.7c0.1,0.2,0.3,0.4,0.4,0.6c1.7,2.6,3.3,5.5,4.9,8.2
			c0.2,0.2,0.3,0.4,0.3,0.6c0.3,0.2,0.4,0.5,0.4,0.7c0.3,0.3,0.5,0.6,0.6,0.9c0.2,0.2,0.3,0.5,0.4,0.7c0.2,0.2,0.3,0.5,0.4,0.7
			c1.4,2.4,2.8,4.7,4.2,7.2c0.1,0.2,0.3,0.4,0.3,0.7c0.2,0.2,0.3,0.4,0.4,0.6c0.4,0.6,0.8,1.1,1,1.8c0.1,0.2,0.2,0.4,0.4,0.6
			c0.1,0.2,0.3,0.5,0.4,0.8c2.8,4.9,5.7,9.9,8.5,14.9c0.1,0.2,0.2,0.4,0.3,0.6c0.1,0,0.1,0.1,0.2,0.2c0.1,0.2,0.2,0.4,0.4,0.7
			c1.3,2.4,2.7,4.8,4.3,7.2c0.1,0.3,0.2,0.5,0.4,0.7c0.1,0.3,0.2,0.5,0.4,0.7c0.7,1,1.2,2.1,1.9,3.1c0.1,0.2,0.2,0.4,0.4,0.6
			c0.1,0.2,0.2,0.4,0.4,0.6c0.3,0.6,0.6,1,0.9,1.6c2.4,3.7,4.9,7.4,7.7,10.8c0.2,0.2,0.3,0.4,0.5,0.5c0.1,0.3,0.3,0.5,0.5,0.7
			c0,0.1,0.2,0.1,0.2,0.1c0.1,0.2,0.2,0.4,0.4,0.6c0.2,0.2,0.4,0.4,0.5,0.6c2.5,2.8,5.1,5.4,7.9,7.7c0.1,0,0.2,0.1,0.4,0.3
			c0.1,0,0.2,0.1,0.3,0.2c0.1,0.1,0.3,0.2,0.4,0.3c0.1,0.1,0.2,0.1,0.3,0.2c0.1,0.1,0.3,0.2,0.4,0.2c4.8,3.5,10.2,5.8,16.2,6.2
			C1815.4,568.9,1819,568.4,1822.4,567.4z"/>
		<path id="XMLID_00000116925673643931261410000012641264405955569838_" class="st10" d="M1698.5,385.4l-9.7,9.9
			c1.7-2.6,4-4.9,6.7-7.3C1696.4,387.3,1697.4,386.5,1698.5,385.4z"/>
	</g>
</g>
</svg>
