<?xml version="1.0" standalone="no"?>
<!DOCTYPE svg PUBLIC "-//W3C//DTD SVG 20010904//EN"
 "http://www.w3.org/TR/2001/REC-SVG-20010904/DTD/svg10.dtd">
<svg version="1.0" xmlns="http://www.w3.org/2000/svg"
 width="1000.000000pt" height="1000.000000pt" viewBox="0 0 1000.000000 1000.000000"
 preserveAspectRatio="xMidYMid meet">
<metadata>
Created by potrace 1.14, written by Peter Selinger 2001-2017
</metadata>
<g transform="translate(0.000000,1000.000000) scale(0.100000,-0.100000)"
fill="#000000" stroke="none">
<path d="M4935 9849 c-37 -21 -70 -39 -73 -39 -3 0 -20 -11 -38 -25 -18 -14
-35 -25 -38 -25 -5 0 -146 -80 -176 -100 -8 -6 -27 -15 -42 -21 -16 -6 -28
-15 -28 -19 0 -5 -10 -12 -22 -16 -12 -3 -44 -21 -72 -39 -28 -17 -78 -47
-111 -65 -33 -18 -67 -39 -76 -46 -8 -8 -19 -14 -23 -14 -3 0 -23 -11 -44 -24
-32 -20 -198 -117 -283 -166 -14 -8 -110 -64 -213 -125 -103 -60 -204 -119
-224 -130 -20 -11 -38 -23 -40 -27 -2 -5 -7 -8 -12 -8 -4 0 -82 -43 -172 -96
-200 -119 -226 -134 -260 -151 -15 -8 -30 -19 -33 -24 -4 -5 -11 -7 -16 -4 -5
4 -9 2 -9 -2 0 -5 -21 -20 -47 -33 -26 -14 -52 -29 -58 -33 -5 -4 -84 -51
-175 -104 -184 -107 -408 -239 -668 -391 -95 -56 -178 -102 -183 -102 -5 0 -9
-4 -9 -10 0 -5 -4 -10 -9 -10 -8 0 -245 -136 -331 -189 -8 -5 -67 -40 -130
-77 -490 -284 -786 -460 -792 -469 -4 -5 -8 -6 -8 -1 0 5 -7 2 -16 -5 -16 -13
-46 -32 -74 -46 -8 -4 -60 -34 -115 -67 -55 -32 -114 -67 -131 -77 -17 -9 -42
-23 -55 -31 -13 -7 -26 -16 -29 -19 -3 -4 -24 -16 -48 -28 -23 -12 -42 -25
-43 -29 -1 -4 -2 -1138 -2 -2520 -2 -2103 0 -2515 12 -2521 7 -5 30 -5 51 -1
21 4 44 4 51 -1 7 -4 23 -3 36 2 12 5 23 5 23 1 0 -9 115 -7 129 3 6 3 11 3
11 -2 0 -10 52 -9 68 1 7 4 19 3 28 -2 9 -5 32 -6 50 -2 19 4 34 5 34 1 0 -3
28 -5 62 -3 92 4 122 4 133 2 10 -2 129 -1 143 1 4 1 12 0 17 -1 6 -1 30 -1
55 -1 53 2 45 2 140 -2 41 -1 85 1 98 5 13 4 22 3 22 -3 0 -6 6 -6 18 0 10 5
24 6 31 2 7 -5 28 -5 47 -1 19 4 34 5 34 1 0 -3 28 -5 62 -3 35 2 72 3 83 3
89 -2 182 -2 190 -1 6 2 15 1 20 0 10 -2 128 -1 143 1 4 1 12 0 17 -1 21 -4
132 -2 175 4 125 16 204 155 167 295 -11 41 -82 121 -107 121 -9 0 -20 3 -24
7 -3 4 -14 9 -24 11 -9 2 -368 4 -797 5 l-780 1 1 2170 c1 1194 2 2176 3 2182
1 6 25 23 54 38 28 15 96 54 150 87 55 32 103 59 108 59 5 0 9 4 9 8 0 5 21
19 48 32 26 13 86 48 134 77 48 29 90 53 93 53 3 0 18 8 33 19 53 36 270 161
281 161 6 0 11 3 11 8 0 4 17 16 37 27 21 11 110 62 198 114 88 52 180 105
205 119 25 13 50 28 55 32 6 4 26 17 45 28 19 10 86 49 148 86 62 36 117 66
122 66 4 0 10 3 12 8 3 8 356 215 375 220 7 2 13 8 13 13 0 5 5 9 10 9 6 0 43
19 83 43 39 24 95 57 122 73 28 16 59 34 70 41 11 7 27 15 35 19 8 4 39 22 68
41 29 18 54 33 57 33 3 0 35 18 71 41 37 22 108 64 158 93 50 29 170 99 266
156 96 56 189 110 205 120 17 10 84 49 150 88 66 38 139 80 161 93 23 13 137
80 253 149 117 69 229 134 249 146 102 57 439 256 456 268 23 19 -1 31 359
-181 155 -91 302 -177 326 -191 25 -13 67 -38 93 -53 27 -16 51 -29 54 -29 3
0 10 -5 17 -10 20 -17 180 -110 189 -110 4 0 8 -4 8 -8 0 -4 12 -13 28 -19 15
-7 34 -17 42 -22 29 -18 166 -99 265 -156 162 -94 196 -114 503 -293 161 -95
296 -172 301 -172 5 0 11 -4 13 -8 2 -4 68 -45 148 -91 80 -46 153 -90 163
-99 9 -8 17 -11 17 -7 0 4 8 1 18 -7 16 -13 41 -29 128 -78 61 -35 379 -221
394 -230 8 -5 47 -28 85 -50 39 -23 77 -45 85 -50 21 -14 337 -198 386 -226
23 -13 94 -55 159 -94 65 -38 119 -70 121 -70 2 0 48 -27 103 -60 55 -33 102
-60 105 -60 3 0 15 -8 26 -17 11 -10 24 -18 28 -18 4 0 18 -8 32 -17 22 -13
76 -45 185 -108 17 -9 59 -35 95 -56 36 -21 78 -46 95 -55 l30 -16 0 -2180 0
-2179 -770 -1 c-423 0 -787 -3 -807 -6 -21 -4 -48 -15 -60 -24 -31 -25 -87
-85 -86 -92 0 -3 -1 -8 -2 -11 -16 -42 -14 -140 3 -180 8 -19 26 -47 40 -62
28 -31 104 -71 117 -63 5 3 11 1 14 -3 3 -5 26 -6 51 -2 25 4 48 3 51 -1 2 -5
16 -4 29 1 14 5 25 6 25 2 0 -4 28 -6 62 -4 92 4 122 4 133 2 10 -2 129 -1
143 1 4 1 12 0 17 -1 6 -1 30 -1 55 -1 53 2 45 2 140 -2 41 -1 85 1 98 5 13 4
22 3 22 -3 0 -6 6 -6 18 0 10 5 24 6 31 2 7 -5 28 -5 47 -1 19 4 34 5 34 1 0
-3 28 -5 62 -3 35 2 72 3 83 3 89 -2 182 -2 190 -1 6 2 15 1 20 0 10 -2 128
-1 143 1 4 1 9 0 12 -1 15 -5 168 -2 178 4 7 4 19 3 28 -2 9 -5 32 -6 50 -2
19 4 34 5 34 1 0 -3 28 -5 62 -3 69 3 76 3 113 1 14 -1 29 2 33 6 10 10 10
5017 0 5038 -5 10 -19 22 -31 27 -12 5 -40 21 -62 35 -22 13 -53 31 -70 40
-16 8 -51 28 -77 44 -25 16 -66 40 -90 54 -23 13 -106 62 -183 107 -136 80
-168 99 -239 139 -64 36 -80 46 -90 54 -26 19 -320 187 -327 187 -5 0 -9 5 -9
10 0 6 -4 10 -9 10 -8 0 -40 18 -161 90 -8 5 -51 29 -95 55 -44 25 -87 50 -95
55 -8 5 -33 19 -55 31 -22 12 -75 44 -118 70 -43 27 -80 49 -82 49 -2 0 -71
41 -155 90 -84 50 -154 90 -156 90 -2 0 -27 15 -57 33 -74 45 -72 44 -277 164
-101 59 -189 110 -194 112 -6 2 -15 8 -21 13 -14 12 -387 228 -393 228 -3 0
-13 6 -21 14 -9 8 -38 26 -66 41 -27 14 -63 34 -80 44 -56 34 -260 154 -292
172 -37 21 -100 59 -128 76 -11 7 -38 22 -60 34 -22 12 -42 24 -45 28 -3 3
-18 13 -35 21 -16 8 -59 32 -94 53 -35 22 -79 47 -97 58 -65 36 -101 57 -359
209 -143 84 -273 161 -290 170 -64 37 -331 193 -351 205 -19 12 -29 10 -89
-26z"/>
<path d="M4195 7491 c-3 -2 -5 -150 -5 -328 0 -251 3 -323 13 -324 19 0 611
-1 623 0 8 1 11 98 10 329 l-1 327 -318 0 c-175 1 -320 -1 -322 -4z"/>
<path d="M5168 7495 c0 0 -2 -147 -3 -327 -1 -291 1 -328 14 -329 9 0 154 -1
323 -2 l308 -2 0 330 0 330 -320 0 c-176 0 -321 0 -322 0z"/>
<path d="M4190 6182 l0 -329 323 0 324 0 -1 326 -1 326 -322 3 -323 2 0 -328z"/>
<path d="M5167 6503 c-2 -5 -4 -152 -3 -328 l1 -320 323 -1 322 -1 0 329 0
328 -319 0 c-176 0 -322 -3 -324 -7z"/>
<path d="M3025 5472 c-199 -21 -373 -149 -449 -329 -25 -60 -28 -70 -45 -152
-13 -65 -6 -206 14 -281 40 -155 136 -281 267 -351 32 -16 56 -34 53 -39 -3
-5 -5 -46 -5 -92 0 -46 1 -537 2 -1093 0 -774 4 -1020 13 -1052 18 -59 49 -99
103 -130 40 -24 58 -28 122 -28 56 1 84 6 110 20 46 27 83 63 106 105 17 33
18 75 19 695 2 768 -4 719 102 806 80 65 244 48 316 -34 59 -66 59 -66 61
-502 2 -362 4 -404 20 -437 41 -86 130 -137 229 -131 93 5 164 49 202 128 18
36 20 66 22 290 2 155 7 263 15 285 42 127 194 187 329 129 54 -23 91 -61 115
-116 15 -34 17 -103 19 -663 2 -547 4 -629 18 -660 49 -108 166 -160 289 -128
60 15 142 88 152 135 4 15 8 37 10 48 2 11 5 25 6 30 1 6 1 15 0 20 -4 22 -2
176 2 181 3 3 2 21 -3 41 -4 21 -4 43 0 51 5 8 5 29 1 47 -4 18 -4 39 1 46 4
7 5 17 2 22 -9 15 -10 67 0 67 4 0 5 5 1 11 -8 14 -10 187 -2 195 3 3 2 21 -3
41 -4 21 -4 43 0 51 5 8 5 29 1 47 -4 18 -4 39 1 46 4 7 5 17 2 22 -9 15 -10
67 0 67 4 0 5 5 1 11 -8 14 -10 187 -2 195 3 3 2 21 -3 41 -4 21 -4 44 1 54 5
9 7 19 4 22 -10 10 -5 190 5 226 22 72 81 131 152 151 93 27 212 -6 261 -71
55 -74 52 2 54 -1224 1 -627 3 -1142 4 -1145 1 -3 2 -8 1 -12 -2 -14 43 -93
64 -111 61 -53 159 -77 229 -55 17 5 36 10 42 12 30 5 84 60 108 107 l26 52 0
911 c0 549 4 925 10 945 28 98 119 163 228 162 67 0 118 -19 168 -63 68 -60
68 -59 69 -495 2 -301 5 -396 15 -408 7 -8 9 -15 6 -15 -4 0 7 -20 25 -45 39
-54 113 -94 179 -96 52 -2 127 17 146 36 8 7 17 15 21 17 20 8 63 73 72 106 8
31 13 107 10 172 0 11 0 284 0 480 0 8 0 44 0 80 1 36 1 72 0 80 0 8 0 116 0
240 0 276 0 242 0 325 1 39 1 81 1 95 0 14 1 172 2 350 l3 324 52 30 c69 42
119 86 165 147 34 46 74 121 83 159 2 8 11 38 18 66 13 47 16 242 5 284 -24
85 -34 112 -58 157 -28 54 -77 119 -120 160 -40 38 -147 95 -219 116 -64 18
-126 19 -2041 20 -1086 1 -1988 1 -2005 -1z"/>
<path d="M4015 2300 c-11 -4 -23 -6 -27 -4 -4 3 -9 0 -13 -6 -3 -5 -14 -10
-23 -10 -26 0 -87 -64 -113 -118 -21 -42 -23 -59 -21 -202 1 -175 1 -170 30
-226 55 -107 189 -155 296 -107 55 24 83 49 114 103 26 43 27 52 30 211 3 154
2 170 -18 218 -24 54 -74 105 -124 126 -42 17 -106 25 -131 15z"/>
<path d="M6805 1864 c-56 -28 -90 -63 -118 -124 -18 -40 -20 -64 -20 -200 0
-135 3 -162 21 -202 67 -152 257 -192 377 -80 40 37 68 88 72 131 7 77 2 298
-8 333 -9 35 -46 88 -79 115 -65 53 -171 65 -245 27z"/>
<path d="M3107 1783 c-3 -2 -20 -5 -38 -7 -54 -6 -86 -23 -133 -70 -61 -60
-71 -104 -70 -285 1 -124 4 -153 21 -191 73 -161 268 -194 388 -66 57 59 65
99 62 292 -2 149 -3 161 -27 199 -29 48 -46 67 -81 88 -28 19 -116 47 -122 40z"/>
<path d="M4975 1558 c-89 -15 -151 -62 -185 -141 -19 -44 -22 -69 -22 -186 -1
-195 6 -224 71 -294 123 -133 358 -65 397 116 3 12 5 87 5 167 1 154 -6 187
-52 251 -25 35 -86 76 -123 83 -14 3 -29 6 -33 9 -5 2 -30 0 -58 -5z"/>
<path d="M5920 810 c-52 -11 -82 -25 -118 -55 -27 -22 -61 -71 -67 -95 -1 -3
-4 -12 -8 -20 -6 -17 -6 -20 -7 -165 -2 -186 10 -229 76 -291 121 -112 304
-77 374 72 19 41 21 63 21 214 0 153 -2 171 -21 206 -56 100 -155 153 -250
134z"/>
</g>
</svg>
